<svg width="354" height="395" viewBox="0 0 354 395" fill="none" xmlns="http://www.w3.org/2000/svg">
<path d="M5.55983 395C1.85317 395 -0.000166461 393.147 -0.000166461 389.44V99.208C-0.000166461 70.6667 8.1545 47.8707 24.4638 30.82C40.7732 13.3987 62.8278 4.68799 90.6278 4.68799H147.896C151.603 4.68799 153.456 6.54132 153.456 10.248V30.264C153.456 33.9707 151.603 35.824 147.896 35.824H90.6278C72.4652 35.824 58.3798 41.384 48.3718 52.504C38.3638 63.624 33.3598 79.192 33.3598 99.208V389.44C33.3598 393.147 31.5065 395 27.7998 395H5.55983ZM176.052 395C172.345 395 170.492 393.147 170.492 389.44V100.876C170.492 70.852 178.832 46.7587 195.512 28.596C212.563 10.0626 234.803 0.795972 262.232 0.795972C289.661 0.795972 311.716 10.0626 328.396 28.596C345.447 46.7587 353.972 70.852 353.972 100.876V389.44C353.972 393.147 352.119 395 348.412 395H326.172C322.465 395 320.612 393.147 320.612 389.44V253.776H203.852V389.44C203.852 393.147 201.999 395 198.292 395H176.052ZM320.612 222.64V100.876C320.612 79.0067 315.423 62.1413 305.044 50.28C295.036 38.048 280.765 31.932 262.232 31.932C243.699 31.932 229.243 38.048 218.864 50.28C208.856 62.1413 203.852 79.0067 203.852 100.876V222.64H320.612Z" fill="#182949"/>
</svg>
