<svg width="435" height="474" viewBox="0 0 435 474" fill="none" xmlns="http://www.w3.org/2000/svg">
<path d="M146.228 84.3601C146.228 80.6535 148.081 78.8001 151.788 78.8001H174.028C177.735 78.8001 179.588 80.6535 179.588 84.3601V452.432C179.588 457.621 178.105 461.699 175.14 464.664C172.175 467.629 168.097 469.112 162.908 469.112H90.628C63.5693 469.112 41.7 459.845 25.02 441.312C8.34 422.779 0 399.241 0 370.7V84.3601C0 80.6535 1.85333 78.8001 5.56 78.8001H27.8C31.5067 78.8001 33.36 80.6535 33.36 84.3601V370.7C33.36 390.716 38.5493 407.025 48.928 419.628C59.3067 431.86 73.2067 437.976 90.628 437.976H146.228V84.3601ZM88.96 60.4559C71.5387 60.4559 57.268 55.6372 46.148 45.9999C35.028 35.9919 28.7267 22.8332 27.244 6.52386C27.244 2.8172 29.0973 0.963867 32.804 0.963867H51.152C54.8587 0.963867 56.8973 2.8172 57.268 6.52386C58.0093 14.6785 61.16 20.9799 66.72 25.4279C72.28 29.8759 79.6933 32.0999 88.96 32.0999C98.2267 32.0999 105.64 29.8759 111.2 25.4279C116.76 20.9799 119.911 14.6785 120.652 6.52386C121.023 2.8172 123.061 0.963867 126.768 0.963867H145.116C148.823 0.963867 150.676 2.8172 150.676 6.52386C149.193 22.8332 142.892 35.9919 131.772 45.9999C121.023 55.6372 106.752 60.4559 88.96 60.4559Z" fill="#182949"/>
<path d="M340.315 473.004C321.782 473.004 305.287 468.741 290.831 460.216C276.746 451.32 265.626 439.088 257.471 423.52C249.687 407.952 245.795 390.16 245.795 370.144V176.656C245.795 156.64 249.687 138.848 257.471 123.28C265.626 107.712 276.746 95.6655 290.831 87.1401C305.287 78.2441 321.782 73.7961 340.315 73.7961C358.478 73.7961 374.787 78.0588 389.243 86.5841C403.699 95.1095 414.819 106.785 422.603 121.612C430.758 136.068 434.835 152.563 434.835 171.096V375.704C434.835 394.237 430.758 410.917 422.603 425.744C414.819 440.2 403.699 451.691 389.243 460.216C374.787 468.741 358.478 473.004 340.315 473.004ZM340.315 441.868C358.478 441.868 373.119 435.752 384.239 423.52C395.73 410.917 401.475 394.979 401.475 375.704V171.096C401.475 151.821 395.73 136.068 384.239 123.836C373.119 111.233 358.478 104.932 340.315 104.932C322.153 104.932 307.326 111.419 295.835 124.392C284.715 137.365 279.155 154.787 279.155 176.656V370.144C279.155 392.013 284.715 409.435 295.835 422.408C307.326 435.381 322.153 441.868 340.315 441.868Z" fill="#182949"/>
</svg>
