<svg width="668" height="620" viewBox="0 0 668 620" fill="none" xmlns="http://www.w3.org/2000/svg">
<g opacity="0.1">
<path d="M4.1537 63.9283C16.3888 63.9283 26.3073 50.0652 26.3073 32.9642C26.3073 15.8631 16.3888 2 4.1537 2C-8.08141 2 -18 15.8631 -18 32.9642C-18 50.0652 -8.08141 63.9283 4.1537 63.9283Z" stroke="white" stroke-width="3.2874" stroke-miterlimit="22.9256"/>
<path d="M39.6926 63.9283C51.9277 63.9283 61.8463 50.0652 61.8463 32.9642C61.8463 15.8631 51.9277 2 39.6926 2C27.4575 2 17.5391 15.8631 17.5391 32.9642C17.5391 50.0652 27.4575 63.9283 39.6926 63.9283Z" stroke="white" stroke-width="3.2874" stroke-miterlimit="22.9256"/>
<path d="M75.2309 63.9283C87.466 63.9283 97.3844 50.0652 97.3844 32.9642C97.3844 15.8631 87.466 2 75.2309 2C62.9957 2 53.0771 15.8631 53.0771 32.9642C53.0771 50.0652 62.9957 63.9283 75.2309 63.9283Z" stroke="white" stroke-width="3.2874" stroke-miterlimit="22.9256"/>
<path d="M110.77 63.9283C123.005 63.9283 132.923 50.0652 132.923 32.9642C132.923 15.8631 123.005 2 110.77 2C98.5348 2 88.6162 15.8631 88.6162 32.9642C88.6162 50.0652 98.5348 63.9283 110.77 63.9283Z" stroke="white" stroke-width="3.2874" stroke-miterlimit="22.9256"/>
<path d="M146.307 63.9283C158.542 63.9283 168.461 50.0652 168.461 32.9642C168.461 15.8631 158.542 2 146.307 2C134.072 2 124.153 15.8631 124.153 32.9642C124.153 50.0652 134.072 63.9283 146.307 63.9283Z" stroke="white" stroke-width="3.2874" stroke-miterlimit="22.9256"/>
<path d="M181.846 63.9283C194.081 63.9283 204 50.0652 204 32.9642C204 15.8631 194.081 2 181.846 2C169.611 2 159.692 15.8631 159.692 32.9642C159.692 50.0652 169.611 63.9283 181.846 63.9283Z" stroke="white" stroke-width="3.2874" stroke-miterlimit="22.9256"/>
<path d="M217.384 63.9283C229.619 63.9283 239.537 50.0652 239.537 32.9642C239.537 15.8631 229.619 2 217.384 2C205.148 2 195.23 15.8631 195.23 32.9642C195.23 50.0652 205.148 63.9283 217.384 63.9283Z" stroke="white" stroke-width="3.2874" stroke-miterlimit="22.9256"/>
<path d="M252.923 63.9283C265.158 63.9283 275.076 50.0652 275.076 32.9642C275.076 15.8631 265.158 2 252.923 2C240.688 2 230.769 15.8631 230.769 32.9642C230.769 50.0652 240.688 63.9283 252.923 63.9283Z" stroke="white" stroke-width="3.2874" stroke-miterlimit="22.9256"/>
<path d="M288.46 63.9283C300.695 63.9283 310.614 50.0652 310.614 32.9642C310.614 15.8631 300.695 2 288.46 2C276.225 2 266.307 15.8631 266.307 32.9642C266.307 50.0652 276.225 63.9283 288.46 63.9283Z" stroke="white" stroke-width="3.2874" stroke-miterlimit="22.9256"/>
<path d="M323.999 63.9283C336.234 63.9283 346.153 50.0652 346.153 32.9642C346.153 15.8631 336.234 2 323.999 2C311.764 2 301.846 15.8631 301.846 32.9642C301.846 50.0652 311.764 63.9283 323.999 63.9283Z" stroke="white" stroke-width="3.2874" stroke-miterlimit="22.9256"/>
<path d="M359.54 63.9283C371.775 63.9283 381.693 50.0652 381.693 32.9642C381.693 15.8631 371.775 2 359.54 2C347.305 2 337.386 15.8631 337.386 32.9642C337.386 50.0652 347.305 63.9283 359.54 63.9283Z" stroke="white" stroke-width="3.2874" stroke-miterlimit="22.9256"/>
<path d="M395.077 63.9283C407.312 63.9283 417.23 50.0652 417.23 32.9642C417.23 15.8631 407.312 2 395.077 2C382.841 2 372.923 15.8631 372.923 32.9642C372.923 50.0652 382.841 63.9283 395.077 63.9283Z" stroke="white" stroke-width="3.2874" stroke-miterlimit="22.9256"/>
<path d="M430.613 63.9283C442.848 63.9283 452.767 50.0652 452.767 32.9642C452.767 15.8631 442.848 2 430.613 2C418.378 2 408.459 15.8631 408.459 32.9642C408.459 50.0652 418.378 63.9283 430.613 63.9283Z" stroke="white" stroke-width="3.2874" stroke-miterlimit="22.9256"/>
<path d="M466.152 63.9283C478.387 63.9283 488.306 50.0652 488.306 32.9642C488.306 15.8631 478.387 2 466.152 2C453.917 2 443.999 15.8631 443.999 32.9642C443.999 50.0652 453.917 63.9283 466.152 63.9283Z" stroke="white" stroke-width="3.2874" stroke-miterlimit="22.9256"/>
<path d="M501.694 63.9283C513.929 63.9283 523.847 50.0652 523.847 32.9642C523.847 15.8631 513.929 2 501.694 2C489.459 2 479.54 15.8631 479.54 32.9642C479.54 50.0652 489.459 63.9283 501.694 63.9283Z" stroke="white" stroke-width="3.2874" stroke-miterlimit="22.9256"/>
<path d="M537.229 63.9283C549.464 63.9283 559.383 50.0652 559.383 32.9642C559.383 15.8631 549.464 2 537.229 2C524.994 2 515.075 15.8631 515.075 32.9642C515.075 50.0652 524.994 63.9283 537.229 63.9283Z" stroke="white" stroke-width="3.2874" stroke-miterlimit="22.9256"/>
<path d="M572.769 63.9283C585.005 63.9283 594.923 50.0652 594.923 32.9642C594.923 15.8631 585.005 2 572.769 2C560.534 2 550.616 15.8631 550.616 32.9642C550.616 50.0652 560.534 63.9283 572.769 63.9283Z" stroke="white" stroke-width="3.2874" stroke-miterlimit="22.9256"/>
<path d="M608.306 63.9283C620.541 63.9283 630.459 50.0652 630.459 32.9642C630.459 15.8631 620.541 2 608.306 2C596.07 2 586.152 15.8631 586.152 32.9642C586.152 50.0652 596.07 63.9283 608.306 63.9283Z" stroke="white" stroke-width="3.2874" stroke-miterlimit="22.9256"/>
<path d="M643.846 63.9283C656.081 63.9283 666 50.0652 666 32.9642C666 15.8631 656.081 2 643.846 2C631.611 2 621.692 15.8631 621.692 32.9642C621.692 50.0652 631.611 63.9283 643.846 63.9283Z" stroke="white" stroke-width="3.2874" stroke-miterlimit="22.9256"/>
<path d="M4.1537 114.288C16.3888 114.288 26.3073 100.425 26.3073 83.324C26.3073 66.223 16.3888 52.3599 4.1537 52.3599C-8.08141 52.3599 -18 66.223 -18 83.324C-18 100.425 -8.08141 114.288 4.1537 114.288Z" stroke="white" stroke-width="3.2874" stroke-miterlimit="22.9256"/>
<path d="M4.1537 164.647C16.3888 164.647 26.3073 150.784 26.3073 133.683C26.3073 116.582 16.3888 102.719 4.1537 102.719C-8.08141 102.719 -18 116.582 -18 133.683C-18 150.784 -8.08141 164.647 4.1537 164.647Z" stroke="white" stroke-width="3.2874" stroke-miterlimit="22.9256"/>
<path d="M4.1537 215.007C16.3888 215.007 26.3073 201.144 26.3073 184.043C26.3073 166.942 16.3888 153.079 4.1537 153.079C-8.08141 153.079 -18 166.942 -18 184.043C-18 201.144 -8.08141 215.007 4.1537 215.007Z" stroke="white" stroke-width="3.2874" stroke-miterlimit="22.9256"/>
<path d="M4.1537 265.368C16.3888 265.368 26.3073 251.505 26.3073 234.404C26.3073 217.303 16.3888 203.439 4.1537 203.439C-8.08141 203.439 -18 217.303 -18 234.404C-18 251.505 -8.08141 265.368 4.1537 265.368Z" stroke="white" stroke-width="3.2874" stroke-miterlimit="22.9256"/>
<path d="M4.1537 315.727C16.3888 315.727 26.3073 301.864 26.3073 284.763C26.3073 267.662 16.3888 253.799 4.1537 253.799C-8.08141 253.799 -18 267.662 -18 284.763C-18 301.864 -8.08141 315.727 4.1537 315.727Z" stroke="white" stroke-width="3.2874" stroke-miterlimit="22.9256"/>
<path d="M4.1537 366.087C16.3888 366.087 26.3073 352.224 26.3073 335.123C26.3073 318.022 16.3888 304.159 4.1537 304.159C-8.08141 304.159 -18 318.022 -18 335.123C-18 352.224 -8.08141 366.087 4.1537 366.087Z" stroke="white" stroke-width="3.2874" stroke-miterlimit="22.9256"/>
<path d="M4.1537 416.448C16.3888 416.448 26.3073 402.585 26.3073 385.484C26.3073 368.383 16.3888 354.52 4.1537 354.52C-8.08141 354.52 -18 368.383 -18 385.484C-18 402.585 -8.08141 416.448 4.1537 416.448Z" stroke="white" stroke-width="3.2874" stroke-miterlimit="22.9256"/>
<path d="M4.1537 466.808C16.3888 466.808 26.3073 452.944 26.3073 435.843C26.3073 418.742 16.3888 404.879 4.1537 404.879C-8.08141 404.879 -18 418.742 -18 435.843C-18 452.944 -8.08141 466.808 4.1537 466.808Z" stroke="white" stroke-width="3.2874" stroke-miterlimit="22.9256"/>
<path d="M4.1537 517.167C16.3888 517.167 26.3073 503.304 26.3073 486.203C26.3073 469.102 16.3888 455.239 4.1537 455.239C-8.08141 455.239 -18 469.102 -18 486.203C-18 503.304 -8.08141 517.167 4.1537 517.167Z" stroke="white" stroke-width="3.2874" stroke-miterlimit="22.9256"/>
<path d="M4.1537 567.526C16.3888 567.526 26.3073 553.663 26.3073 536.562C26.3073 519.461 16.3888 505.598 4.1537 505.598C-8.08141 505.598 -18 519.461 -18 536.562C-18 553.663 -8.08141 567.526 4.1537 567.526Z" stroke="white" stroke-width="3.2874" stroke-miterlimit="22.9256"/>
<path d="M4.1537 617.886C16.3888 617.886 26.3073 604.023 26.3073 586.922C26.3073 569.821 16.3888 555.958 4.1537 555.958C-8.08141 555.958 -18 569.821 -18 586.922C-18 604.023 -8.08141 617.886 4.1537 617.886Z" stroke="white" stroke-width="3.2874" stroke-miterlimit="22.9256"/>
<path d="M39.6926 114.288C51.9277 114.288 61.8463 100.425 61.8463 83.324C61.8463 66.223 51.9277 52.3599 39.6926 52.3599C27.4575 52.3599 17.5391 66.223 17.5391 83.324C17.5391 100.425 27.4575 114.288 39.6926 114.288Z" stroke="white" stroke-width="3.2874" stroke-miterlimit="22.9256"/>
<path d="M39.6926 164.647C51.9277 164.647 61.8463 150.784 61.8463 133.683C61.8463 116.582 51.9277 102.719 39.6926 102.719C27.4575 102.719 17.5391 116.582 17.5391 133.683C17.5391 150.784 27.4575 164.647 39.6926 164.647Z" stroke="white" stroke-width="3.2874" stroke-miterlimit="22.9256"/>
<path d="M39.6926 215.007C51.9277 215.007 61.8463 201.144 61.8463 184.043C61.8463 166.942 51.9277 153.079 39.6926 153.079C27.4575 153.079 17.5391 166.942 17.5391 184.043C17.5391 201.144 27.4575 215.007 39.6926 215.007Z" stroke="white" stroke-width="3.2874" stroke-miterlimit="22.9256"/>
<path d="M39.6926 265.368C51.9277 265.368 61.8463 251.505 61.8463 234.404C61.8463 217.303 51.9277 203.439 39.6926 203.439C27.4575 203.439 17.5391 217.303 17.5391 234.404C17.5391 251.505 27.4575 265.368 39.6926 265.368Z" stroke="white" stroke-width="3.2874" stroke-miterlimit="22.9256"/>
<path d="M39.6926 315.727C51.9277 315.727 61.8463 301.864 61.8463 284.763C61.8463 267.662 51.9277 253.799 39.6926 253.799C27.4575 253.799 17.5391 267.662 17.5391 284.763C17.5391 301.864 27.4575 315.727 39.6926 315.727Z" stroke="white" stroke-width="3.2874" stroke-miterlimit="22.9256"/>
<path d="M39.6926 366.087C51.9277 366.087 61.8463 352.224 61.8463 335.123C61.8463 318.022 51.9277 304.159 39.6926 304.159C27.4575 304.159 17.5391 318.022 17.5391 335.123C17.5391 352.224 27.4575 366.087 39.6926 366.087Z" stroke="white" stroke-width="3.2874" stroke-miterlimit="22.9256"/>
<path d="M39.6926 416.448C51.9277 416.448 61.8463 402.585 61.8463 385.484C61.8463 368.383 51.9277 354.52 39.6926 354.52C27.4575 354.52 17.5391 368.383 17.5391 385.484C17.5391 402.585 27.4575 416.448 39.6926 416.448Z" stroke="white" stroke-width="3.2874" stroke-miterlimit="22.9256"/>
<path d="M39.6926 466.808C51.9277 466.808 61.8463 452.945 61.8463 435.844C61.8463 418.743 51.9277 404.879 39.6926 404.879C27.4575 404.879 17.5391 418.743 17.5391 435.844C17.5391 452.945 27.4575 466.808 39.6926 466.808Z" stroke="white" stroke-width="3.2874" stroke-miterlimit="22.9256"/>
<path d="M39.6926 517.167C51.9277 517.167 61.8463 503.304 61.8463 486.203C61.8463 469.102 51.9277 455.239 39.6926 455.239C27.4575 455.239 17.5391 469.102 17.5391 486.203C17.5391 503.304 27.4575 517.167 39.6926 517.167Z" stroke="white" stroke-width="3.2874" stroke-miterlimit="22.9256"/>
<path d="M39.6926 567.526C51.9277 567.526 61.8463 553.663 61.8463 536.562C61.8463 519.461 51.9277 505.598 39.6926 505.598C27.4575 505.598 17.5391 519.461 17.5391 536.562C17.5391 553.663 27.4575 567.526 39.6926 567.526Z" stroke="white" stroke-width="3.2874" stroke-miterlimit="22.9256"/>
<path d="M39.6926 617.886C51.9277 617.886 61.8463 604.023 61.8463 586.922C61.8463 569.821 51.9277 555.958 39.6926 555.958C27.4575 555.958 17.5391 569.821 17.5391 586.922C17.5391 604.023 27.4575 617.886 39.6926 617.886Z" stroke="white" stroke-width="3.2874" stroke-miterlimit="22.9256"/>
<path d="M75.2309 114.288C87.466 114.288 97.3844 100.425 97.3844 83.324C97.3844 66.223 87.466 52.3599 75.2309 52.3599C62.9957 52.3599 53.0771 66.223 53.0771 83.324C53.0771 100.425 62.9957 114.288 75.2309 114.288Z" stroke="white" stroke-width="3.2874" stroke-miterlimit="22.9256"/>
<path d="M75.2309 164.647C87.466 164.647 97.3844 150.784 97.3844 133.683C97.3844 116.582 87.466 102.719 75.2309 102.719C62.9957 102.719 53.0771 116.582 53.0771 133.683C53.0771 150.784 62.9957 164.647 75.2309 164.647Z" stroke="white" stroke-width="3.2874" stroke-miterlimit="22.9256"/>
<path d="M75.2309 215.007C87.466 215.007 97.3844 201.144 97.3844 184.043C97.3844 166.942 87.466 153.079 75.2309 153.079C62.9957 153.079 53.0771 166.942 53.0771 184.043C53.0771 201.144 62.9957 215.007 75.2309 215.007Z" stroke="white" stroke-width="3.2874" stroke-miterlimit="22.9256"/>
<path d="M75.2309 265.368C87.466 265.368 97.3844 251.505 97.3844 234.404C97.3844 217.303 87.466 203.439 75.2309 203.439C62.9957 203.439 53.0771 217.303 53.0771 234.404C53.0771 251.505 62.9957 265.368 75.2309 265.368Z" stroke="white" stroke-width="3.2874" stroke-miterlimit="22.9256"/>
<path d="M75.2309 315.727C87.466 315.727 97.3844 301.864 97.3844 284.763C97.3844 267.662 87.466 253.799 75.2309 253.799C62.9957 253.799 53.0771 267.662 53.0771 284.763C53.0771 301.864 62.9957 315.727 75.2309 315.727Z" stroke="white" stroke-width="3.2874" stroke-miterlimit="22.9256"/>
<path d="M75.2309 366.087C87.466 366.087 97.3844 352.224 97.3844 335.123C97.3844 318.022 87.466 304.159 75.2309 304.159C62.9957 304.159 53.0771 318.022 53.0771 335.123C53.0771 352.224 62.9957 366.087 75.2309 366.087Z" stroke="white" stroke-width="3.2874" stroke-miterlimit="22.9256"/>
<path d="M75.2309 416.448C87.466 416.448 97.3844 402.585 97.3844 385.484C97.3844 368.383 87.466 354.52 75.2309 354.52C62.9957 354.52 53.0771 368.383 53.0771 385.484C53.0771 402.585 62.9957 416.448 75.2309 416.448Z" stroke="white" stroke-width="3.2874" stroke-miterlimit="22.9256"/>
<path d="M75.2309 466.808C87.466 466.808 97.3844 452.945 97.3844 435.844C97.3844 418.743 87.466 404.879 75.2309 404.879C62.9957 404.879 53.0771 418.743 53.0771 435.844C53.0771 452.945 62.9957 466.808 75.2309 466.808Z" stroke="white" stroke-width="3.2874" stroke-miterlimit="22.9256"/>
<path d="M75.2309 517.167C87.466 517.167 97.3844 503.304 97.3844 486.203C97.3844 469.102 87.466 455.239 75.2309 455.239C62.9957 455.239 53.0771 469.102 53.0771 486.203C53.0771 503.304 62.9957 517.167 75.2309 517.167Z" stroke="white" stroke-width="3.2874" stroke-miterlimit="22.9256"/>
<path d="M75.2309 567.526C87.466 567.526 97.3844 553.663 97.3844 536.562C97.3844 519.461 87.466 505.598 75.2309 505.598C62.9957 505.598 53.0771 519.461 53.0771 536.562C53.0771 553.663 62.9957 567.526 75.2309 567.526Z" stroke="white" stroke-width="3.2874" stroke-miterlimit="22.9256"/>
<path d="M75.2309 617.886C87.466 617.886 97.3844 604.023 97.3844 586.922C97.3844 569.821 87.466 555.958 75.2309 555.958C62.9957 555.958 53.0771 569.821 53.0771 586.922C53.0771 604.023 62.9957 617.886 75.2309 617.886Z" stroke="white" stroke-width="3.2874" stroke-miterlimit="22.9256"/>
<path d="M110.77 114.288C123.005 114.288 132.923 100.425 132.923 83.324C132.923 66.223 123.005 52.3599 110.77 52.3599C98.5348 52.3599 88.6162 66.223 88.6162 83.324C88.6162 100.425 98.5348 114.288 110.77 114.288Z" stroke="white" stroke-width="3.2874" stroke-miterlimit="22.9256"/>
<path d="M110.77 164.647C123.005 164.647 132.923 150.784 132.923 133.683C132.923 116.582 123.005 102.719 110.77 102.719C98.5348 102.719 88.6162 116.582 88.6162 133.683C88.6162 150.784 98.5348 164.647 110.77 164.647Z" stroke="white" stroke-width="3.2874" stroke-miterlimit="22.9256"/>
<path d="M110.77 215.007C123.005 215.007 132.923 201.144 132.923 184.043C132.923 166.942 123.005 153.079 110.77 153.079C98.5348 153.079 88.6162 166.942 88.6162 184.043C88.6162 201.144 98.5348 215.007 110.77 215.007Z" stroke="white" stroke-width="3.2874" stroke-miterlimit="22.9256"/>
<path d="M110.77 265.368C123.005 265.368 132.923 251.505 132.923 234.404C132.923 217.303 123.005 203.439 110.77 203.439C98.5348 203.439 88.6162 217.303 88.6162 234.404C88.6162 251.505 98.5348 265.368 110.77 265.368Z" stroke="white" stroke-width="3.2874" stroke-miterlimit="22.9256"/>
<path d="M110.77 315.727C123.005 315.727 132.923 301.864 132.923 284.763C132.923 267.662 123.005 253.799 110.77 253.799C98.5348 253.799 88.6162 267.662 88.6162 284.763C88.6162 301.864 98.5348 315.727 110.77 315.727Z" stroke="white" stroke-width="3.2874" stroke-miterlimit="22.9256"/>
<path d="M110.77 366.087C123.005 366.087 132.923 352.224 132.923 335.123C132.923 318.022 123.005 304.159 110.77 304.159C98.5348 304.159 88.6162 318.022 88.6162 335.123C88.6162 352.224 98.5348 366.087 110.77 366.087Z" stroke="white" stroke-width="3.2874" stroke-miterlimit="22.9256"/>
<path d="M110.77 416.448C123.005 416.448 132.923 402.585 132.923 385.484C132.923 368.383 123.005 354.52 110.77 354.52C98.5348 354.52 88.6162 368.383 88.6162 385.484C88.6162 402.585 98.5348 416.448 110.77 416.448Z" stroke="white" stroke-width="3.2874" stroke-miterlimit="22.9256"/>
<path d="M110.77 466.808C123.005 466.808 132.923 452.945 132.923 435.844C132.923 418.743 123.005 404.879 110.77 404.879C98.5348 404.879 88.6162 418.743 88.6162 435.844C88.6162 452.945 98.5348 466.808 110.77 466.808Z" stroke="white" stroke-width="3.2874" stroke-miterlimit="22.9256"/>
<path d="M110.77 517.167C123.005 517.167 132.923 503.304 132.923 486.203C132.923 469.102 123.005 455.239 110.77 455.239C98.5348 455.239 88.6162 469.102 88.6162 486.203C88.6162 503.304 98.5348 517.167 110.77 517.167Z" stroke="white" stroke-width="3.2874" stroke-miterlimit="22.9256"/>
<path d="M110.77 567.526C123.005 567.526 132.923 553.663 132.923 536.562C132.923 519.461 123.005 505.598 110.77 505.598C98.5348 505.598 88.6162 519.461 88.6162 536.562C88.6162 553.663 98.5348 567.526 110.77 567.526Z" stroke="white" stroke-width="3.2874" stroke-miterlimit="22.9256"/>
<path d="M110.77 617.886C123.005 617.886 132.923 604.023 132.923 586.922C132.923 569.821 123.005 555.958 110.77 555.958C98.5348 555.958 88.6162 569.821 88.6162 586.922C88.6162 604.023 98.5348 617.886 110.77 617.886Z" stroke="white" stroke-width="3.2874" stroke-miterlimit="22.9256"/>
<path d="M146.307 114.288C158.542 114.288 168.461 100.425 168.461 83.324C168.461 66.223 158.542 52.3599 146.307 52.3599C134.072 52.3599 124.153 66.223 124.153 83.324C124.153 100.425 134.072 114.288 146.307 114.288Z" stroke="white" stroke-width="3.2874" stroke-miterlimit="22.9256"/>
<path d="M146.307 164.647C158.542 164.647 168.461 150.784 168.461 133.683C168.461 116.582 158.542 102.719 146.307 102.719C134.072 102.719 124.153 116.582 124.153 133.683C124.153 150.784 134.072 164.647 146.307 164.647Z" stroke="white" stroke-width="3.2874" stroke-miterlimit="22.9256"/>
<path d="M146.307 215.007C158.542 215.007 168.461 201.144 168.461 184.043C168.461 166.942 158.542 153.079 146.307 153.079C134.072 153.079 124.153 166.942 124.153 184.043C124.153 201.144 134.072 215.007 146.307 215.007Z" stroke="white" stroke-width="3.2874" stroke-miterlimit="22.9256"/>
<path d="M146.307 265.368C158.542 265.368 168.461 251.505 168.461 234.404C168.461 217.303 158.542 203.439 146.307 203.439C134.072 203.439 124.153 217.303 124.153 234.404C124.153 251.505 134.072 265.368 146.307 265.368Z" stroke="white" stroke-width="3.2874" stroke-miterlimit="22.9256"/>
<path d="M146.307 315.727C158.542 315.727 168.461 301.864 168.461 284.763C168.461 267.662 158.542 253.799 146.307 253.799C134.072 253.799 124.153 267.662 124.153 284.763C124.153 301.864 134.072 315.727 146.307 315.727Z" stroke="white" stroke-width="3.2874" stroke-miterlimit="22.9256"/>
<path d="M146.307 366.087C158.542 366.087 168.461 352.224 168.461 335.123C168.461 318.022 158.542 304.159 146.307 304.159C134.072 304.159 124.153 318.022 124.153 335.123C124.153 352.224 134.072 366.087 146.307 366.087Z" stroke="white" stroke-width="3.2874" stroke-miterlimit="22.9256"/>
<path d="M146.307 416.448C158.542 416.448 168.461 402.585 168.461 385.484C168.461 368.383 158.542 354.52 146.307 354.52C134.072 354.52 124.153 368.383 124.153 385.484C124.153 402.585 134.072 416.448 146.307 416.448Z" stroke="white" stroke-width="3.2874" stroke-miterlimit="22.9256"/>
<path d="M146.307 466.808C158.542 466.808 168.461 452.945 168.461 435.844C168.461 418.743 158.542 404.879 146.307 404.879C134.072 404.879 124.153 418.743 124.153 435.844C124.153 452.945 134.072 466.808 146.307 466.808Z" stroke="white" stroke-width="3.2874" stroke-miterlimit="22.9256"/>
<path d="M146.307 517.167C158.542 517.167 168.461 503.304 168.461 486.203C168.461 469.102 158.542 455.239 146.307 455.239C134.072 455.239 124.153 469.102 124.153 486.203C124.153 503.304 134.072 517.167 146.307 517.167Z" stroke="white" stroke-width="3.2874" stroke-miterlimit="22.9256"/>
<path d="M146.307 567.526C158.542 567.526 168.461 553.663 168.461 536.562C168.461 519.461 158.542 505.598 146.307 505.598C134.072 505.598 124.153 519.461 124.153 536.562C124.153 553.663 134.072 567.526 146.307 567.526Z" stroke="white" stroke-width="3.2874" stroke-miterlimit="22.9256"/>
<path d="M146.307 617.886C158.542 617.886 168.461 604.023 168.461 586.922C168.461 569.821 158.542 555.958 146.307 555.958C134.072 555.958 124.153 569.821 124.153 586.922C124.153 604.023 134.072 617.886 146.307 617.886Z" stroke="white" stroke-width="3.2874" stroke-miterlimit="22.9256"/>
<path d="M181.846 114.288C194.081 114.288 204 100.425 204 83.324C204 66.223 194.081 52.3599 181.846 52.3599C169.611 52.3599 159.692 66.223 159.692 83.324C159.692 100.425 169.611 114.288 181.846 114.288Z" stroke="white" stroke-width="3.2874" stroke-miterlimit="22.9256"/>
<path d="M181.846 164.647C194.081 164.647 204 150.784 204 133.683C204 116.582 194.081 102.719 181.846 102.719C169.611 102.719 159.692 116.582 159.692 133.683C159.692 150.784 169.611 164.647 181.846 164.647Z" stroke="white" stroke-width="3.2874" stroke-miterlimit="22.9256"/>
<path d="M181.846 215.007C194.081 215.007 204 201.144 204 184.043C204 166.942 194.081 153.079 181.846 153.079C169.611 153.079 159.692 166.942 159.692 184.043C159.692 201.144 169.611 215.007 181.846 215.007Z" stroke="white" stroke-width="3.2874" stroke-miterlimit="22.9256"/>
<path d="M181.846 265.368C194.081 265.368 204 251.505 204 234.404C204 217.303 194.081 203.439 181.846 203.439C169.611 203.439 159.692 217.303 159.692 234.404C159.692 251.505 169.611 265.368 181.846 265.368Z" stroke="white" stroke-width="3.2874" stroke-miterlimit="22.9256"/>
<path d="M181.846 315.727C194.081 315.727 204 301.864 204 284.763C204 267.662 194.081 253.799 181.846 253.799C169.611 253.799 159.692 267.662 159.692 284.763C159.692 301.864 169.611 315.727 181.846 315.727Z" stroke="white" stroke-width="3.2874" stroke-miterlimit="22.9256"/>
<path d="M181.846 366.087C194.081 366.087 204 352.224 204 335.123C204 318.022 194.081 304.159 181.846 304.159C169.611 304.159 159.692 318.022 159.692 335.123C159.692 352.224 169.611 366.087 181.846 366.087Z" stroke="white" stroke-width="3.2874" stroke-miterlimit="22.9256"/>
<path d="M181.846 416.448C194.081 416.448 204 402.585 204 385.484C204 368.383 194.081 354.52 181.846 354.52C169.611 354.52 159.692 368.383 159.692 385.484C159.692 402.585 169.611 416.448 181.846 416.448Z" stroke="white" stroke-width="3.2874" stroke-miterlimit="22.9256"/>
<path d="M181.846 466.808C194.081 466.808 204 452.945 204 435.844C204 418.743 194.081 404.879 181.846 404.879C169.611 404.879 159.692 418.743 159.692 435.844C159.692 452.945 169.611 466.808 181.846 466.808Z" stroke="white" stroke-width="3.2874" stroke-miterlimit="22.9256"/>
<path d="M181.846 517.167C194.081 517.167 204 503.304 204 486.203C204 469.102 194.081 455.239 181.846 455.239C169.611 455.239 159.692 469.102 159.692 486.203C159.692 503.304 169.611 517.167 181.846 517.167Z" stroke="white" stroke-width="3.2874" stroke-miterlimit="22.9256"/>
<path d="M181.846 567.526C194.081 567.526 204 553.663 204 536.562C204 519.461 194.081 505.598 181.846 505.598C169.611 505.598 159.692 519.461 159.692 536.562C159.692 553.663 169.611 567.526 181.846 567.526Z" stroke="white" stroke-width="3.2874" stroke-miterlimit="22.9256"/>
<path d="M181.846 617.886C194.081 617.886 204 604.023 204 586.922C204 569.821 194.081 555.958 181.846 555.958C169.611 555.958 159.692 569.821 159.692 586.922C159.692 604.023 169.611 617.886 181.846 617.886Z" stroke="white" stroke-width="3.2874" stroke-miterlimit="22.9256"/>
<path d="M217.384 114.288C229.619 114.288 239.537 100.425 239.537 83.324C239.537 66.223 229.619 52.3599 217.384 52.3599C205.148 52.3599 195.23 66.223 195.23 83.324C195.23 100.425 205.148 114.288 217.384 114.288Z" stroke="white" stroke-width="3.2874" stroke-miterlimit="22.9256"/>
<path d="M217.384 164.647C229.619 164.647 239.537 150.784 239.537 133.683C239.537 116.582 229.619 102.719 217.384 102.719C205.148 102.719 195.23 116.582 195.23 133.683C195.23 150.784 205.148 164.647 217.384 164.647Z" stroke="white" stroke-width="3.2874" stroke-miterlimit="22.9256"/>
<path d="M217.384 215.007C229.619 215.007 239.537 201.144 239.537 184.043C239.537 166.942 229.619 153.079 217.384 153.079C205.148 153.079 195.23 166.942 195.23 184.043C195.23 201.144 205.148 215.007 217.384 215.007Z" stroke="white" stroke-width="3.2874" stroke-miterlimit="22.9256"/>
<path d="M217.384 265.368C229.619 265.368 239.537 251.505 239.537 234.404C239.537 217.303 229.619 203.439 217.384 203.439C205.148 203.439 195.23 217.303 195.23 234.404C195.23 251.505 205.148 265.368 217.384 265.368Z" stroke="white" stroke-width="3.2874" stroke-miterlimit="22.9256"/>
<path d="M217.384 315.727C229.619 315.727 239.537 301.864 239.537 284.763C239.537 267.662 229.619 253.799 217.384 253.799C205.148 253.799 195.23 267.662 195.23 284.763C195.23 301.864 205.148 315.727 217.384 315.727Z" stroke="white" stroke-width="3.2874" stroke-miterlimit="22.9256"/>
<path d="M217.384 366.087C229.619 366.087 239.537 352.224 239.537 335.123C239.537 318.022 229.619 304.159 217.384 304.159C205.148 304.159 195.23 318.022 195.23 335.123C195.23 352.224 205.148 366.087 217.384 366.087Z" stroke="white" stroke-width="3.2874" stroke-miterlimit="22.9256"/>
<path d="M217.384 416.448C229.619 416.448 239.537 402.585 239.537 385.484C239.537 368.383 229.619 354.52 217.384 354.52C205.148 354.52 195.23 368.383 195.23 385.484C195.23 402.585 205.148 416.448 217.384 416.448Z" stroke="white" stroke-width="3.2874" stroke-miterlimit="22.9256"/>
<path d="M217.384 466.808C229.619 466.808 239.537 452.945 239.537 435.844C239.537 418.743 229.619 404.879 217.384 404.879C205.148 404.879 195.23 418.743 195.23 435.844C195.23 452.945 205.148 466.808 217.384 466.808Z" stroke="white" stroke-width="3.2874" stroke-miterlimit="22.9256"/>
<path d="M217.384 517.167C229.619 517.167 239.537 503.304 239.537 486.203C239.537 469.102 229.619 455.239 217.384 455.239C205.148 455.239 195.23 469.102 195.23 486.203C195.23 503.304 205.148 517.167 217.384 517.167Z" stroke="white" stroke-width="3.2874" stroke-miterlimit="22.9256"/>
<path d="M217.384 567.526C229.619 567.526 239.537 553.663 239.537 536.562C239.537 519.461 229.619 505.598 217.384 505.598C205.148 505.598 195.23 519.461 195.23 536.562C195.23 553.663 205.148 567.526 217.384 567.526Z" stroke="white" stroke-width="3.2874" stroke-miterlimit="22.9256"/>
<path d="M217.384 617.886C229.619 617.886 239.537 604.023 239.537 586.922C239.537 569.821 229.619 555.958 217.384 555.958C205.148 555.958 195.23 569.821 195.23 586.922C195.23 604.023 205.148 617.886 217.384 617.886Z" stroke="white" stroke-width="3.2874" stroke-miterlimit="22.9256"/>
<path d="M252.923 114.288C265.158 114.288 275.076 100.425 275.076 83.324C275.076 66.223 265.158 52.3599 252.923 52.3599C240.688 52.3599 230.769 66.223 230.769 83.324C230.769 100.425 240.688 114.288 252.923 114.288Z" stroke="white" stroke-width="3.2874" stroke-miterlimit="22.9256"/>
<path d="M252.923 164.647C265.158 164.647 275.076 150.784 275.076 133.683C275.076 116.582 265.158 102.719 252.923 102.719C240.688 102.719 230.769 116.582 230.769 133.683C230.769 150.784 240.688 164.647 252.923 164.647Z" stroke="white" stroke-width="3.2874" stroke-miterlimit="22.9256"/>
<path d="M252.923 215.007C265.158 215.007 275.076 201.144 275.076 184.043C275.076 166.942 265.158 153.079 252.923 153.079C240.688 153.079 230.769 166.942 230.769 184.043C230.769 201.144 240.688 215.007 252.923 215.007Z" stroke="white" stroke-width="3.2874" stroke-miterlimit="22.9256"/>
<path d="M252.923 265.368C265.158 265.368 275.076 251.505 275.076 234.404C275.076 217.303 265.158 203.439 252.923 203.439C240.688 203.439 230.769 217.303 230.769 234.404C230.769 251.505 240.688 265.368 252.923 265.368Z" stroke="white" stroke-width="3.2874" stroke-miterlimit="22.9256"/>
<path d="M252.923 315.727C265.158 315.727 275.076 301.864 275.076 284.763C275.076 267.662 265.158 253.799 252.923 253.799C240.688 253.799 230.769 267.662 230.769 284.763C230.769 301.864 240.688 315.727 252.923 315.727Z" stroke="white" stroke-width="3.2874" stroke-miterlimit="22.9256"/>
<path d="M252.923 366.087C265.158 366.087 275.076 352.224 275.076 335.123C275.076 318.022 265.158 304.159 252.923 304.159C240.688 304.159 230.769 318.022 230.769 335.123C230.769 352.224 240.688 366.087 252.923 366.087Z" stroke="white" stroke-width="3.2874" stroke-miterlimit="22.9256"/>
<path d="M252.923 416.448C265.158 416.448 275.076 402.585 275.076 385.484C275.076 368.383 265.158 354.52 252.923 354.52C240.688 354.52 230.769 368.383 230.769 385.484C230.769 402.585 240.688 416.448 252.923 416.448Z" stroke="white" stroke-width="3.2874" stroke-miterlimit="22.9256"/>
<path d="M252.923 466.808C265.158 466.808 275.076 452.945 275.076 435.844C275.076 418.743 265.158 404.879 252.923 404.879C240.688 404.879 230.769 418.743 230.769 435.844C230.769 452.945 240.688 466.808 252.923 466.808Z" stroke="white" stroke-width="3.2874" stroke-miterlimit="22.9256"/>
<path d="M252.923 517.167C265.158 517.167 275.076 503.304 275.076 486.203C275.076 469.102 265.158 455.239 252.923 455.239C240.688 455.239 230.769 469.102 230.769 486.203C230.769 503.304 240.688 517.167 252.923 517.167Z" stroke="white" stroke-width="3.2874" stroke-miterlimit="22.9256"/>
<path d="M252.923 567.526C265.158 567.526 275.076 553.663 275.076 536.562C275.076 519.461 265.158 505.598 252.923 505.598C240.688 505.598 230.769 519.461 230.769 536.562C230.769 553.663 240.688 567.526 252.923 567.526Z" stroke="white" stroke-width="3.2874" stroke-miterlimit="22.9256"/>
<path d="M252.923 617.886C265.158 617.886 275.076 604.023 275.076 586.922C275.076 569.821 265.158 555.958 252.923 555.958C240.688 555.958 230.769 569.821 230.769 586.922C230.769 604.023 240.688 617.886 252.923 617.886Z" stroke="white" stroke-width="3.2874" stroke-miterlimit="22.9256"/>
<path d="M288.46 114.288C300.695 114.288 310.614 100.425 310.614 83.324C310.614 66.223 300.695 52.3599 288.46 52.3599C276.225 52.3599 266.307 66.223 266.307 83.324C266.307 100.425 276.225 114.288 288.46 114.288Z" stroke="white" stroke-width="3.2874" stroke-miterlimit="22.9256"/>
<path d="M288.46 164.647C300.695 164.647 310.614 150.784 310.614 133.683C310.614 116.582 300.695 102.719 288.46 102.719C276.225 102.719 266.307 116.582 266.307 133.683C266.307 150.784 276.225 164.647 288.46 164.647Z" stroke="white" stroke-width="3.2874" stroke-miterlimit="22.9256"/>
<path d="M288.46 215.007C300.695 215.007 310.614 201.144 310.614 184.043C310.614 166.942 300.695 153.079 288.46 153.079C276.225 153.079 266.307 166.942 266.307 184.043C266.307 201.144 276.225 215.007 288.46 215.007Z" stroke="white" stroke-width="3.2874" stroke-miterlimit="22.9256"/>
<path d="M288.46 265.368C300.695 265.368 310.614 251.505 310.614 234.404C310.614 217.303 300.695 203.439 288.46 203.439C276.225 203.439 266.307 217.303 266.307 234.404C266.307 251.505 276.225 265.368 288.46 265.368Z" stroke="white" stroke-width="3.2874" stroke-miterlimit="22.9256"/>
<path d="M288.46 315.727C300.695 315.727 310.614 301.864 310.614 284.763C310.614 267.662 300.695 253.799 288.46 253.799C276.225 253.799 266.307 267.662 266.307 284.763C266.307 301.864 276.225 315.727 288.46 315.727Z" stroke="white" stroke-width="3.2874" stroke-miterlimit="22.9256"/>
<path d="M288.46 366.087C300.695 366.087 310.614 352.224 310.614 335.123C310.614 318.022 300.695 304.159 288.46 304.159C276.225 304.159 266.307 318.022 266.307 335.123C266.307 352.224 276.225 366.087 288.46 366.087Z" stroke="white" stroke-width="3.2874" stroke-miterlimit="22.9256"/>
<path d="M288.46 416.448C300.695 416.448 310.614 402.585 310.614 385.484C310.614 368.383 300.695 354.52 288.46 354.52C276.225 354.52 266.307 368.383 266.307 385.484C266.307 402.585 276.225 416.448 288.46 416.448Z" stroke="white" stroke-width="3.2874" stroke-miterlimit="22.9256"/>
<path d="M288.46 466.808C300.695 466.808 310.614 452.945 310.614 435.844C310.614 418.743 300.695 404.879 288.46 404.879C276.225 404.879 266.307 418.743 266.307 435.844C266.307 452.945 276.225 466.808 288.46 466.808Z" stroke="white" stroke-width="3.2874" stroke-miterlimit="22.9256"/>
<path d="M288.46 517.167C300.695 517.167 310.614 503.304 310.614 486.203C310.614 469.102 300.695 455.239 288.46 455.239C276.225 455.239 266.307 469.102 266.307 486.203C266.307 503.304 276.225 517.167 288.46 517.167Z" stroke="white" stroke-width="3.2874" stroke-miterlimit="22.9256"/>
<path d="M288.46 567.526C300.695 567.526 310.614 553.663 310.614 536.562C310.614 519.461 300.695 505.598 288.46 505.598C276.225 505.598 266.307 519.461 266.307 536.562C266.307 553.663 276.225 567.526 288.46 567.526Z" stroke="white" stroke-width="3.2874" stroke-miterlimit="22.9256"/>
<path d="M288.46 617.886C300.695 617.886 310.614 604.023 310.614 586.922C310.614 569.821 300.695 555.958 288.46 555.958C276.225 555.958 266.307 569.821 266.307 586.922C266.307 604.023 276.225 617.886 288.46 617.886Z" stroke="white" stroke-width="3.2874" stroke-miterlimit="22.9256"/>
<path d="M323.999 114.288C336.234 114.288 346.153 100.425 346.153 83.324C346.153 66.223 336.234 52.3599 323.999 52.3599C311.764 52.3599 301.846 66.223 301.846 83.324C301.846 100.425 311.764 114.288 323.999 114.288Z" stroke="white" stroke-width="3.2874" stroke-miterlimit="22.9256"/>
<path d="M323.999 164.647C336.234 164.647 346.153 150.784 346.153 133.683C346.153 116.582 336.234 102.719 323.999 102.719C311.764 102.719 301.846 116.582 301.846 133.683C301.846 150.784 311.764 164.647 323.999 164.647Z" stroke="white" stroke-width="3.2874" stroke-miterlimit="22.9256"/>
<path d="M323.999 215.007C336.234 215.007 346.153 201.144 346.153 184.043C346.153 166.942 336.234 153.079 323.999 153.079C311.764 153.079 301.846 166.942 301.846 184.043C301.846 201.144 311.764 215.007 323.999 215.007Z" stroke="white" stroke-width="3.2874" stroke-miterlimit="22.9256"/>
<path d="M323.999 265.368C336.234 265.368 346.153 251.505 346.153 234.404C346.153 217.303 336.234 203.439 323.999 203.439C311.764 203.439 301.846 217.303 301.846 234.404C301.846 251.505 311.764 265.368 323.999 265.368Z" stroke="white" stroke-width="3.2874" stroke-miterlimit="22.9256"/>
<path d="M323.999 315.727C336.234 315.727 346.153 301.864 346.153 284.763C346.153 267.662 336.234 253.799 323.999 253.799C311.764 253.799 301.846 267.662 301.846 284.763C301.846 301.864 311.764 315.727 323.999 315.727Z" stroke="white" stroke-width="3.2874" stroke-miterlimit="22.9256"/>
<path d="M323.999 366.087C336.234 366.087 346.153 352.224 346.153 335.123C346.153 318.022 336.234 304.159 323.999 304.159C311.764 304.159 301.846 318.022 301.846 335.123C301.846 352.224 311.764 366.087 323.999 366.087Z" stroke="white" stroke-width="3.2874" stroke-miterlimit="22.9256"/>
<path d="M323.999 416.448C336.234 416.448 346.153 402.585 346.153 385.484C346.153 368.383 336.234 354.52 323.999 354.52C311.764 354.52 301.846 368.383 301.846 385.484C301.846 402.585 311.764 416.448 323.999 416.448Z" stroke="white" stroke-width="3.2874" stroke-miterlimit="22.9256"/>
<path d="M323.999 466.808C336.234 466.808 346.153 452.945 346.153 435.844C346.153 418.743 336.234 404.879 323.999 404.879C311.764 404.879 301.846 418.743 301.846 435.844C301.846 452.945 311.764 466.808 323.999 466.808Z" stroke="white" stroke-width="3.2874" stroke-miterlimit="22.9256"/>
<path d="M323.999 517.167C336.234 517.167 346.153 503.304 346.153 486.203C346.153 469.102 336.234 455.239 323.999 455.239C311.764 455.239 301.846 469.102 301.846 486.203C301.846 503.304 311.764 517.167 323.999 517.167Z" stroke="white" stroke-width="3.2874" stroke-miterlimit="22.9256"/>
<path d="M323.999 567.526C336.234 567.526 346.153 553.663 346.153 536.562C346.153 519.461 336.234 505.598 323.999 505.598C311.764 505.598 301.846 519.461 301.846 536.562C301.846 553.663 311.764 567.526 323.999 567.526Z" stroke="white" stroke-width="3.2874" stroke-miterlimit="22.9256"/>
<path d="M323.999 617.886C336.234 617.886 346.153 604.023 346.153 586.922C346.153 569.821 336.234 555.958 323.999 555.958C311.764 555.958 301.846 569.821 301.846 586.922C301.846 604.023 311.764 617.886 323.999 617.886Z" stroke="white" stroke-width="3.2874" stroke-miterlimit="22.9256"/>
<path d="M359.54 114.288C371.775 114.288 381.693 100.425 381.693 83.324C381.693 66.223 371.775 52.3599 359.54 52.3599C347.305 52.3599 337.386 66.223 337.386 83.324C337.386 100.425 347.305 114.288 359.54 114.288Z" stroke="white" stroke-width="3.2874" stroke-miterlimit="22.9256"/>
<path d="M359.54 164.647C371.775 164.647 381.693 150.784 381.693 133.683C381.693 116.582 371.775 102.719 359.54 102.719C347.305 102.719 337.386 116.582 337.386 133.683C337.386 150.784 347.305 164.647 359.54 164.647Z" stroke="white" stroke-width="3.2874" stroke-miterlimit="22.9256"/>
<path d="M359.54 215.007C371.775 215.007 381.693 201.144 381.693 184.043C381.693 166.942 371.775 153.079 359.54 153.079C347.305 153.079 337.386 166.942 337.386 184.043C337.386 201.144 347.305 215.007 359.54 215.007Z" stroke="white" stroke-width="3.2874" stroke-miterlimit="22.9256"/>
<path d="M359.54 265.368C371.775 265.368 381.693 251.505 381.693 234.404C381.693 217.303 371.775 203.439 359.54 203.439C347.305 203.439 337.386 217.303 337.386 234.404C337.386 251.505 347.305 265.368 359.54 265.368Z" stroke="white" stroke-width="3.2874" stroke-miterlimit="22.9256"/>
<path d="M359.54 315.727C371.775 315.727 381.693 301.864 381.693 284.763C381.693 267.662 371.775 253.799 359.54 253.799C347.305 253.799 337.386 267.662 337.386 284.763C337.386 301.864 347.305 315.727 359.54 315.727Z" stroke="white" stroke-width="3.2874" stroke-miterlimit="22.9256"/>
<path d="M359.54 366.087C371.775 366.087 381.693 352.224 381.693 335.123C381.693 318.022 371.775 304.159 359.54 304.159C347.305 304.159 337.386 318.022 337.386 335.123C337.386 352.224 347.305 366.087 359.54 366.087Z" stroke="white" stroke-width="3.2874" stroke-miterlimit="22.9256"/>
<path d="M359.54 416.448C371.775 416.448 381.693 402.585 381.693 385.484C381.693 368.383 371.775 354.52 359.54 354.52C347.305 354.52 337.386 368.383 337.386 385.484C337.386 402.585 347.305 416.448 359.54 416.448Z" stroke="white" stroke-width="3.2874" stroke-miterlimit="22.9256"/>
<path d="M359.54 466.808C371.775 466.808 381.693 452.945 381.693 435.844C381.693 418.743 371.775 404.879 359.54 404.879C347.305 404.879 337.386 418.743 337.386 435.844C337.386 452.945 347.305 466.808 359.54 466.808Z" stroke="white" stroke-width="3.2874" stroke-miterlimit="22.9256"/>
<path d="M359.54 517.167C371.775 517.167 381.693 503.304 381.693 486.203C381.693 469.102 371.775 455.239 359.54 455.239C347.305 455.239 337.386 469.102 337.386 486.203C337.386 503.304 347.305 517.167 359.54 517.167Z" stroke="white" stroke-width="3.2874" stroke-miterlimit="22.9256"/>
<path d="M359.54 567.526C371.775 567.526 381.693 553.663 381.693 536.562C381.693 519.461 371.775 505.598 359.54 505.598C347.305 505.598 337.386 519.461 337.386 536.562C337.386 553.663 347.305 567.526 359.54 567.526Z" stroke="white" stroke-width="3.2874" stroke-miterlimit="22.9256"/>
<path d="M359.54 617.886C371.775 617.886 381.693 604.023 381.693 586.922C381.693 569.821 371.775 555.958 359.54 555.958C347.305 555.958 337.386 569.821 337.386 586.922C337.386 604.023 347.305 617.886 359.54 617.886Z" stroke="white" stroke-width="3.2874" stroke-miterlimit="22.9256"/>
<path d="M395.077 114.288C407.312 114.288 417.23 100.425 417.23 83.324C417.23 66.223 407.312 52.3599 395.077 52.3599C382.841 52.3599 372.923 66.223 372.923 83.324C372.923 100.425 382.841 114.288 395.077 114.288Z" stroke="white" stroke-width="3.2874" stroke-miterlimit="22.9256"/>
<path d="M395.077 164.647C407.312 164.647 417.23 150.784 417.23 133.683C417.23 116.582 407.312 102.719 395.077 102.719C382.841 102.719 372.923 116.582 372.923 133.683C372.923 150.784 382.841 164.647 395.077 164.647Z" stroke="white" stroke-width="3.2874" stroke-miterlimit="22.9256"/>
<path d="M395.077 215.007C407.312 215.007 417.23 201.144 417.23 184.043C417.23 166.942 407.312 153.079 395.077 153.079C382.841 153.079 372.923 166.942 372.923 184.043C372.923 201.144 382.841 215.007 395.077 215.007Z" stroke="white" stroke-width="3.2874" stroke-miterlimit="22.9256"/>
<path d="M395.077 265.368C407.312 265.368 417.23 251.505 417.23 234.404C417.23 217.303 407.312 203.439 395.077 203.439C382.841 203.439 372.923 217.303 372.923 234.404C372.923 251.505 382.841 265.368 395.077 265.368Z" stroke="white" stroke-width="3.2874" stroke-miterlimit="22.9256"/>
<path d="M395.077 315.727C407.312 315.727 417.23 301.864 417.23 284.763C417.23 267.662 407.312 253.799 395.077 253.799C382.841 253.799 372.923 267.662 372.923 284.763C372.923 301.864 382.841 315.727 395.077 315.727Z" stroke="white" stroke-width="3.2874" stroke-miterlimit="22.9256"/>
<path d="M395.077 366.087C407.312 366.087 417.23 352.224 417.23 335.123C417.23 318.022 407.312 304.159 395.077 304.159C382.841 304.159 372.923 318.022 372.923 335.123C372.923 352.224 382.841 366.087 395.077 366.087Z" stroke="white" stroke-width="3.2874" stroke-miterlimit="22.9256"/>
<path d="M395.077 416.448C407.312 416.448 417.23 402.585 417.23 385.484C417.23 368.383 407.312 354.52 395.077 354.52C382.841 354.52 372.923 368.383 372.923 385.484C372.923 402.585 382.841 416.448 395.077 416.448Z" stroke="white" stroke-width="3.2874" stroke-miterlimit="22.9256"/>
<path d="M395.077 466.808C407.312 466.808 417.23 452.945 417.23 435.844C417.23 418.743 407.312 404.879 395.077 404.879C382.841 404.879 372.923 418.743 372.923 435.844C372.923 452.945 382.841 466.808 395.077 466.808Z" stroke="white" stroke-width="3.2874" stroke-miterlimit="22.9256"/>
<path d="M395.077 517.167C407.312 517.167 417.23 503.304 417.23 486.203C417.23 469.102 407.312 455.239 395.077 455.239C382.841 455.239 372.923 469.102 372.923 486.203C372.923 503.304 382.841 517.167 395.077 517.167Z" stroke="white" stroke-width="3.2874" stroke-miterlimit="22.9256"/>
<path d="M395.077 567.526C407.312 567.526 417.23 553.663 417.23 536.562C417.23 519.461 407.312 505.598 395.077 505.598C382.841 505.598 372.923 519.461 372.923 536.562C372.923 553.663 382.841 567.526 395.077 567.526Z" stroke="white" stroke-width="3.2874" stroke-miterlimit="22.9256"/>
<path d="M395.077 617.886C407.312 617.886 417.23 604.023 417.23 586.922C417.23 569.821 407.312 555.958 395.077 555.958C382.841 555.958 372.923 569.821 372.923 586.922C372.923 604.023 382.841 617.886 395.077 617.886Z" stroke="white" stroke-width="3.2874" stroke-miterlimit="22.9256"/>
<path d="M430.613 114.288C442.848 114.288 452.767 100.425 452.767 83.324C452.767 66.223 442.848 52.3599 430.613 52.3599C418.378 52.3599 408.459 66.223 408.459 83.324C408.459 100.425 418.378 114.288 430.613 114.288Z" stroke="white" stroke-width="3.2874" stroke-miterlimit="22.9256"/>
<path d="M430.613 164.647C442.848 164.647 452.767 150.784 452.767 133.683C452.767 116.582 442.848 102.719 430.613 102.719C418.378 102.719 408.459 116.582 408.459 133.683C408.459 150.784 418.378 164.647 430.613 164.647Z" stroke="white" stroke-width="3.2874" stroke-miterlimit="22.9256"/>
<path d="M430.613 215.007C442.848 215.007 452.767 201.144 452.767 184.043C452.767 166.942 442.848 153.079 430.613 153.079C418.378 153.079 408.459 166.942 408.459 184.043C408.459 201.144 418.378 215.007 430.613 215.007Z" stroke="white" stroke-width="3.2874" stroke-miterlimit="22.9256"/>
<path d="M430.613 265.368C442.848 265.368 452.767 251.505 452.767 234.404C452.767 217.303 442.848 203.439 430.613 203.439C418.378 203.439 408.459 217.303 408.459 234.404C408.459 251.505 418.378 265.368 430.613 265.368Z" stroke="white" stroke-width="3.2874" stroke-miterlimit="22.9256"/>
<path d="M430.613 315.727C442.848 315.727 452.767 301.864 452.767 284.763C452.767 267.662 442.848 253.799 430.613 253.799C418.378 253.799 408.459 267.662 408.459 284.763C408.459 301.864 418.378 315.727 430.613 315.727Z" stroke="white" stroke-width="3.2874" stroke-miterlimit="22.9256"/>
<path d="M430.613 366.087C442.848 366.087 452.767 352.224 452.767 335.123C452.767 318.022 442.848 304.159 430.613 304.159C418.378 304.159 408.459 318.022 408.459 335.123C408.459 352.224 418.378 366.087 430.613 366.087Z" stroke="white" stroke-width="3.2874" stroke-miterlimit="22.9256"/>
<path d="M430.613 416.448C442.848 416.448 452.767 402.585 452.767 385.484C452.767 368.383 442.848 354.52 430.613 354.52C418.378 354.52 408.459 368.383 408.459 385.484C408.459 402.585 418.378 416.448 430.613 416.448Z" stroke="white" stroke-width="3.2874" stroke-miterlimit="22.9256"/>
<path d="M430.613 466.808C442.848 466.808 452.767 452.945 452.767 435.844C452.767 418.743 442.848 404.879 430.613 404.879C418.378 404.879 408.459 418.743 408.459 435.844C408.459 452.945 418.378 466.808 430.613 466.808Z" stroke="white" stroke-width="3.2874" stroke-miterlimit="22.9256"/>
<path d="M430.613 517.167C442.848 517.167 452.767 503.304 452.767 486.203C452.767 469.102 442.848 455.239 430.613 455.239C418.378 455.239 408.459 469.102 408.459 486.203C408.459 503.304 418.378 517.167 430.613 517.167Z" stroke="white" stroke-width="3.2874" stroke-miterlimit="22.9256"/>
<path d="M430.613 567.526C442.848 567.526 452.767 553.663 452.767 536.562C452.767 519.461 442.848 505.598 430.613 505.598C418.378 505.598 408.459 519.461 408.459 536.562C408.459 553.663 418.378 567.526 430.613 567.526Z" stroke="white" stroke-width="3.2874" stroke-miterlimit="22.9256"/>
<path d="M430.613 617.886C442.848 617.886 452.767 604.023 452.767 586.922C452.767 569.821 442.848 555.958 430.613 555.958C418.378 555.958 408.459 569.821 408.459 586.922C408.459 604.023 418.378 617.886 430.613 617.886Z" stroke="white" stroke-width="3.2874" stroke-miterlimit="22.9256"/>
<path d="M466.152 114.288C478.387 114.288 488.306 100.425 488.306 83.324C488.306 66.223 478.387 52.3599 466.152 52.3599C453.917 52.3599 443.999 66.223 443.999 83.324C443.999 100.425 453.917 114.288 466.152 114.288Z" stroke="white" stroke-width="3.2874" stroke-miterlimit="22.9256"/>
<path d="M466.152 164.647C478.387 164.647 488.306 150.784 488.306 133.683C488.306 116.582 478.387 102.719 466.152 102.719C453.917 102.719 443.999 116.582 443.999 133.683C443.999 150.784 453.917 164.647 466.152 164.647Z" stroke="white" stroke-width="3.2874" stroke-miterlimit="22.9256"/>
<path d="M466.152 215.007C478.387 215.007 488.306 201.144 488.306 184.043C488.306 166.942 478.387 153.079 466.152 153.079C453.917 153.079 443.999 166.942 443.999 184.043C443.999 201.144 453.917 215.007 466.152 215.007Z" stroke="white" stroke-width="3.2874" stroke-miterlimit="22.9256"/>
<path d="M466.152 265.368C478.387 265.368 488.306 251.505 488.306 234.404C488.306 217.303 478.387 203.439 466.152 203.439C453.917 203.439 443.999 217.303 443.999 234.404C443.999 251.505 453.917 265.368 466.152 265.368Z" stroke="white" stroke-width="3.2874" stroke-miterlimit="22.9256"/>
<path d="M466.152 315.727C478.387 315.727 488.306 301.864 488.306 284.763C488.306 267.662 478.387 253.799 466.152 253.799C453.917 253.799 443.999 267.662 443.999 284.763C443.999 301.864 453.917 315.727 466.152 315.727Z" stroke="white" stroke-width="3.2874" stroke-miterlimit="22.9256"/>
<path d="M466.152 366.087C478.387 366.087 488.306 352.224 488.306 335.123C488.306 318.022 478.387 304.159 466.152 304.159C453.917 304.159 443.999 318.022 443.999 335.123C443.999 352.224 453.917 366.087 466.152 366.087Z" stroke="white" stroke-width="3.2874" stroke-miterlimit="22.9256"/>
<path d="M466.152 416.448C478.387 416.448 488.306 402.585 488.306 385.484C488.306 368.383 478.387 354.52 466.152 354.52C453.917 354.52 443.999 368.383 443.999 385.484C443.999 402.585 453.917 416.448 466.152 416.448Z" stroke="white" stroke-width="3.2874" stroke-miterlimit="22.9256"/>
<path d="M466.152 466.808C478.387 466.808 488.306 452.945 488.306 435.844C488.306 418.743 478.387 404.879 466.152 404.879C453.917 404.879 443.999 418.743 443.999 435.844C443.999 452.945 453.917 466.808 466.152 466.808Z" stroke="white" stroke-width="3.2874" stroke-miterlimit="22.9256"/>
<path d="M466.152 517.167C478.387 517.167 488.306 503.304 488.306 486.203C488.306 469.102 478.387 455.239 466.152 455.239C453.917 455.239 443.999 469.102 443.999 486.203C443.999 503.304 453.917 517.167 466.152 517.167Z" stroke="white" stroke-width="3.2874" stroke-miterlimit="22.9256"/>
<path d="M466.152 567.526C478.387 567.526 488.306 553.663 488.306 536.562C488.306 519.461 478.387 505.598 466.152 505.598C453.917 505.598 443.999 519.461 443.999 536.562C443.999 553.663 453.917 567.526 466.152 567.526Z" stroke="white" stroke-width="3.2874" stroke-miterlimit="22.9256"/>
<path d="M466.152 617.886C478.387 617.886 488.306 604.023 488.306 586.922C488.306 569.821 478.387 555.958 466.152 555.958C453.917 555.958 443.999 569.821 443.999 586.922C443.999 604.023 453.917 617.886 466.152 617.886Z" stroke="white" stroke-width="3.2874" stroke-miterlimit="22.9256"/>
<path d="M501.694 114.288C513.929 114.288 523.847 100.425 523.847 83.324C523.847 66.223 513.929 52.3599 501.694 52.3599C489.459 52.3599 479.54 66.223 479.54 83.324C479.54 100.425 489.459 114.288 501.694 114.288Z" stroke="white" stroke-width="3.2874" stroke-miterlimit="22.9256"/>
<path d="M501.694 164.647C513.929 164.647 523.847 150.784 523.847 133.683C523.847 116.582 513.929 102.719 501.694 102.719C489.459 102.719 479.54 116.582 479.54 133.683C479.54 150.784 489.459 164.647 501.694 164.647Z" stroke="white" stroke-width="3.2874" stroke-miterlimit="22.9256"/>
<path d="M501.694 215.007C513.929 215.007 523.847 201.144 523.847 184.043C523.847 166.942 513.929 153.079 501.694 153.079C489.459 153.079 479.54 166.942 479.54 184.043C479.54 201.144 489.459 215.007 501.694 215.007Z" stroke="white" stroke-width="3.2874" stroke-miterlimit="22.9256"/>
<path d="M501.694 265.368C513.929 265.368 523.847 251.505 523.847 234.404C523.847 217.303 513.929 203.439 501.694 203.439C489.459 203.439 479.54 217.303 479.54 234.404C479.54 251.505 489.459 265.368 501.694 265.368Z" stroke="white" stroke-width="3.2874" stroke-miterlimit="22.9256"/>
<path d="M501.694 315.727C513.929 315.727 523.847 301.864 523.847 284.763C523.847 267.662 513.929 253.799 501.694 253.799C489.459 253.799 479.54 267.662 479.54 284.763C479.54 301.864 489.459 315.727 501.694 315.727Z" stroke="white" stroke-width="3.2874" stroke-miterlimit="22.9256"/>
<path d="M501.694 366.087C513.929 366.087 523.847 352.224 523.847 335.123C523.847 318.022 513.929 304.159 501.694 304.159C489.459 304.159 479.54 318.022 479.54 335.123C479.54 352.224 489.459 366.087 501.694 366.087Z" stroke="white" stroke-width="3.2874" stroke-miterlimit="22.9256"/>
<path d="M501.694 416.448C513.929 416.448 523.847 402.585 523.847 385.484C523.847 368.383 513.929 354.52 501.694 354.52C489.459 354.52 479.54 368.383 479.54 385.484C479.54 402.585 489.459 416.448 501.694 416.448Z" stroke="white" stroke-width="3.2874" stroke-miterlimit="22.9256"/>
<path d="M501.694 466.808C513.929 466.808 523.847 452.945 523.847 435.844C523.847 418.743 513.929 404.879 501.694 404.879C489.459 404.879 479.54 418.743 479.54 435.844C479.54 452.945 489.459 466.808 501.694 466.808Z" stroke="white" stroke-width="3.2874" stroke-miterlimit="22.9256"/>
<path d="M501.694 517.167C513.929 517.167 523.847 503.304 523.847 486.203C523.847 469.102 513.929 455.239 501.694 455.239C489.459 455.239 479.54 469.102 479.54 486.203C479.54 503.304 489.459 517.167 501.694 517.167Z" stroke="white" stroke-width="3.2874" stroke-miterlimit="22.9256"/>
<path d="M501.694 567.526C513.929 567.526 523.847 553.663 523.847 536.562C523.847 519.461 513.929 505.598 501.694 505.598C489.459 505.598 479.54 519.461 479.54 536.562C479.54 553.663 489.459 567.526 501.694 567.526Z" stroke="white" stroke-width="3.2874" stroke-miterlimit="22.9256"/>
<path d="M501.694 617.886C513.929 617.886 523.847 604.023 523.847 586.922C523.847 569.821 513.929 555.958 501.694 555.958C489.459 555.958 479.54 569.821 479.54 586.922C479.54 604.023 489.459 617.886 501.694 617.886Z" stroke="white" stroke-width="3.2874" stroke-miterlimit="22.9256"/>
<path d="M537.229 114.288C549.464 114.288 559.383 100.425 559.383 83.324C559.383 66.223 549.464 52.3599 537.229 52.3599C524.994 52.3599 515.075 66.223 515.075 83.324C515.075 100.425 524.994 114.288 537.229 114.288Z" stroke="white" stroke-width="3.2874" stroke-miterlimit="22.9256"/>
<path d="M537.229 164.647C549.464 164.647 559.383 150.784 559.383 133.683C559.383 116.582 549.464 102.719 537.229 102.719C524.994 102.719 515.075 116.582 515.075 133.683C515.075 150.784 524.994 164.647 537.229 164.647Z" stroke="white" stroke-width="3.2874" stroke-miterlimit="22.9256"/>
<path d="M537.229 215.007C549.464 215.007 559.383 201.144 559.383 184.043C559.383 166.942 549.464 153.079 537.229 153.079C524.994 153.079 515.075 166.942 515.075 184.043C515.075 201.144 524.994 215.007 537.229 215.007Z" stroke="white" stroke-width="3.2874" stroke-miterlimit="22.9256"/>
<path d="M537.229 265.368C549.464 265.368 559.383 251.505 559.383 234.404C559.383 217.303 549.464 203.439 537.229 203.439C524.994 203.439 515.075 217.303 515.075 234.404C515.075 251.505 524.994 265.368 537.229 265.368Z" stroke="white" stroke-width="3.2874" stroke-miterlimit="22.9256"/>
<path d="M537.229 315.727C549.464 315.727 559.383 301.864 559.383 284.763C559.383 267.662 549.464 253.799 537.229 253.799C524.994 253.799 515.075 267.662 515.075 284.763C515.075 301.864 524.994 315.727 537.229 315.727Z" stroke="white" stroke-width="3.2874" stroke-miterlimit="22.9256"/>
<path d="M537.229 366.087C549.464 366.087 559.383 352.224 559.383 335.123C559.383 318.022 549.464 304.159 537.229 304.159C524.994 304.159 515.075 318.022 515.075 335.123C515.075 352.224 524.994 366.087 537.229 366.087Z" stroke="white" stroke-width="3.2874" stroke-miterlimit="22.9256"/>
<path d="M537.229 416.448C549.464 416.448 559.383 402.585 559.383 385.484C559.383 368.383 549.464 354.52 537.229 354.52C524.994 354.52 515.075 368.383 515.075 385.484C515.075 402.585 524.994 416.448 537.229 416.448Z" stroke="white" stroke-width="3.2874" stroke-miterlimit="22.9256"/>
<path d="M537.229 466.808C549.464 466.808 559.383 452.945 559.383 435.844C559.383 418.743 549.464 404.879 537.229 404.879C524.994 404.879 515.075 418.743 515.075 435.844C515.075 452.945 524.994 466.808 537.229 466.808Z" stroke="white" stroke-width="3.2874" stroke-miterlimit="22.9256"/>
<path d="M537.229 517.167C549.464 517.167 559.383 503.304 559.383 486.203C559.383 469.102 549.464 455.239 537.229 455.239C524.994 455.239 515.075 469.102 515.075 486.203C515.075 503.304 524.994 517.167 537.229 517.167Z" stroke="white" stroke-width="3.2874" stroke-miterlimit="22.9256"/>
<path d="M537.229 567.526C549.464 567.526 559.383 553.663 559.383 536.562C559.383 519.461 549.464 505.598 537.229 505.598C524.994 505.598 515.075 519.461 515.075 536.562C515.075 553.663 524.994 567.526 537.229 567.526Z" stroke="white" stroke-width="3.2874" stroke-miterlimit="22.9256"/>
<path d="M537.229 617.886C549.464 617.886 559.383 604.023 559.383 586.922C559.383 569.821 549.464 555.958 537.229 555.958C524.994 555.958 515.075 569.821 515.075 586.922C515.075 604.023 524.994 617.886 537.229 617.886Z" stroke="white" stroke-width="3.2874" stroke-miterlimit="22.9256"/>
<path d="M572.769 114.288C585.005 114.288 594.923 100.425 594.923 83.324C594.923 66.223 585.005 52.3599 572.769 52.3599C560.534 52.3599 550.616 66.223 550.616 83.324C550.616 100.425 560.534 114.288 572.769 114.288Z" stroke="white" stroke-width="3.2874" stroke-miterlimit="22.9256"/>
<path d="M572.769 164.647C585.005 164.647 594.923 150.784 594.923 133.683C594.923 116.582 585.005 102.719 572.769 102.719C560.534 102.719 550.616 116.582 550.616 133.683C550.616 150.784 560.534 164.647 572.769 164.647Z" stroke="white" stroke-width="3.2874" stroke-miterlimit="22.9256"/>
<path d="M572.769 215.007C585.005 215.007 594.923 201.144 594.923 184.043C594.923 166.942 585.005 153.079 572.769 153.079C560.534 153.079 550.616 166.942 550.616 184.043C550.616 201.144 560.534 215.007 572.769 215.007Z" stroke="white" stroke-width="3.2874" stroke-miterlimit="22.9256"/>
<path d="M572.769 265.368C585.005 265.368 594.923 251.505 594.923 234.404C594.923 217.303 585.005 203.439 572.769 203.439C560.534 203.439 550.616 217.303 550.616 234.404C550.616 251.505 560.534 265.368 572.769 265.368Z" stroke="white" stroke-width="3.2874" stroke-miterlimit="22.9256"/>
<path d="M572.769 315.727C585.005 315.727 594.923 301.864 594.923 284.763C594.923 267.662 585.005 253.799 572.769 253.799C560.534 253.799 550.616 267.662 550.616 284.763C550.616 301.864 560.534 315.727 572.769 315.727Z" stroke="white" stroke-width="3.2874" stroke-miterlimit="22.9256"/>
<path d="M572.769 366.087C585.005 366.087 594.923 352.224 594.923 335.123C594.923 318.022 585.005 304.159 572.769 304.159C560.534 304.159 550.616 318.022 550.616 335.123C550.616 352.224 560.534 366.087 572.769 366.087Z" stroke="white" stroke-width="3.2874" stroke-miterlimit="22.9256"/>
<path d="M572.769 416.448C585.005 416.448 594.923 402.585 594.923 385.484C594.923 368.383 585.005 354.52 572.769 354.52C560.534 354.52 550.616 368.383 550.616 385.484C550.616 402.585 560.534 416.448 572.769 416.448Z" stroke="white" stroke-width="3.2874" stroke-miterlimit="22.9256"/>
<path d="M572.769 466.808C585.005 466.808 594.923 452.945 594.923 435.844C594.923 418.743 585.005 404.879 572.769 404.879C560.534 404.879 550.616 418.743 550.616 435.844C550.616 452.945 560.534 466.808 572.769 466.808Z" stroke="white" stroke-width="3.2874" stroke-miterlimit="22.9256"/>
<path d="M572.769 517.167C585.005 517.167 594.923 503.304 594.923 486.203C594.923 469.102 585.005 455.239 572.769 455.239C560.534 455.239 550.616 469.102 550.616 486.203C550.616 503.304 560.534 517.167 572.769 517.167Z" stroke="white" stroke-width="3.2874" stroke-miterlimit="22.9256"/>
<path d="M572.769 567.526C585.005 567.526 594.923 553.663 594.923 536.562C594.923 519.461 585.005 505.598 572.769 505.598C560.534 505.598 550.616 519.461 550.616 536.562C550.616 553.663 560.534 567.526 572.769 567.526Z" stroke="white" stroke-width="3.2874" stroke-miterlimit="22.9256"/>
<path d="M572.769 617.886C585.005 617.886 594.923 604.023 594.923 586.922C594.923 569.821 585.005 555.958 572.769 555.958C560.534 555.958 550.616 569.821 550.616 586.922C550.616 604.023 560.534 617.886 572.769 617.886Z" stroke="white" stroke-width="3.2874" stroke-miterlimit="22.9256"/>
<path d="M608.306 114.288C620.541 114.288 630.459 100.425 630.459 83.324C630.459 66.223 620.541 52.3599 608.306 52.3599C596.07 52.3599 586.152 66.223 586.152 83.324C586.152 100.425 596.07 114.288 608.306 114.288Z" stroke="white" stroke-width="3.2874" stroke-miterlimit="22.9256"/>
<path d="M608.306 164.647C620.541 164.647 630.459 150.784 630.459 133.683C630.459 116.582 620.541 102.719 608.306 102.719C596.07 102.719 586.152 116.582 586.152 133.683C586.152 150.784 596.07 164.647 608.306 164.647Z" stroke="white" stroke-width="3.2874" stroke-miterlimit="22.9256"/>
<path d="M608.306 215.007C620.541 215.007 630.459 201.144 630.459 184.043C630.459 166.942 620.541 153.079 608.306 153.079C596.07 153.079 586.152 166.942 586.152 184.043C586.152 201.144 596.07 215.007 608.306 215.007Z" stroke="white" stroke-width="3.2874" stroke-miterlimit="22.9256"/>
<path d="M608.306 265.368C620.541 265.368 630.459 251.505 630.459 234.404C630.459 217.303 620.541 203.439 608.306 203.439C596.07 203.439 586.152 217.303 586.152 234.404C586.152 251.505 596.07 265.368 608.306 265.368Z" stroke="white" stroke-width="3.2874" stroke-miterlimit="22.9256"/>
<path d="M608.306 315.727C620.541 315.727 630.459 301.864 630.459 284.763C630.459 267.662 620.541 253.799 608.306 253.799C596.07 253.799 586.152 267.662 586.152 284.763C586.152 301.864 596.07 315.727 608.306 315.727Z" stroke="white" stroke-width="3.2874" stroke-miterlimit="22.9256"/>
<path d="M608.306 366.087C620.541 366.087 630.459 352.224 630.459 335.123C630.459 318.022 620.541 304.159 608.306 304.159C596.07 304.159 586.152 318.022 586.152 335.123C586.152 352.224 596.07 366.087 608.306 366.087Z" stroke="white" stroke-width="3.2874" stroke-miterlimit="22.9256"/>
<path d="M608.306 416.448C620.541 416.448 630.459 402.585 630.459 385.484C630.459 368.383 620.541 354.52 608.306 354.52C596.07 354.52 586.152 368.383 586.152 385.484C586.152 402.585 596.07 416.448 608.306 416.448Z" stroke="white" stroke-width="3.2874" stroke-miterlimit="22.9256"/>
<path d="M608.306 466.808C620.541 466.808 630.459 452.945 630.459 435.844C630.459 418.743 620.541 404.879 608.306 404.879C596.07 404.879 586.152 418.743 586.152 435.844C586.152 452.945 596.07 466.808 608.306 466.808Z" stroke="white" stroke-width="3.2874" stroke-miterlimit="22.9256"/>
<path d="M608.306 517.167C620.541 517.167 630.459 503.304 630.459 486.203C630.459 469.102 620.541 455.239 608.306 455.239C596.07 455.239 586.152 469.102 586.152 486.203C586.152 503.304 596.07 517.167 608.306 517.167Z" stroke="white" stroke-width="3.2874" stroke-miterlimit="22.9256"/>
<path d="M608.306 567.526C620.541 567.526 630.459 553.663 630.459 536.562C630.459 519.461 620.541 505.598 608.306 505.598C596.07 505.598 586.152 519.461 586.152 536.562C586.152 553.663 596.07 567.526 608.306 567.526Z" stroke="white" stroke-width="3.2874" stroke-miterlimit="22.9256"/>
<path d="M608.306 617.886C620.541 617.886 630.459 604.023 630.459 586.922C630.459 569.821 620.541 555.958 608.306 555.958C596.07 555.958 586.152 569.821 586.152 586.922C586.152 604.023 596.07 617.886 608.306 617.886Z" stroke="white" stroke-width="3.2874" stroke-miterlimit="22.9256"/>
<path d="M643.846 114.288C656.081 114.288 666 100.425 666 83.324C666 66.223 656.081 52.3599 643.846 52.3599C631.611 52.3599 621.692 66.223 621.692 83.324C621.692 100.425 631.611 114.288 643.846 114.288Z" stroke="white" stroke-width="3.2874" stroke-miterlimit="22.9256"/>
<path d="M643.846 164.647C656.081 164.647 666 150.784 666 133.683C666 116.582 656.081 102.719 643.846 102.719C631.611 102.719 621.692 116.582 621.692 133.683C621.692 150.784 631.611 164.647 643.846 164.647Z" stroke="white" stroke-width="3.2874" stroke-miterlimit="22.9256"/>
<path d="M643.846 215.007C656.081 215.007 666 201.144 666 184.043C666 166.942 656.081 153.079 643.846 153.079C631.611 153.079 621.692 166.942 621.692 184.043C621.692 201.144 631.611 215.007 643.846 215.007Z" stroke="white" stroke-width="3.2874" stroke-miterlimit="22.9256"/>
<path d="M643.846 265.368C656.081 265.368 666 251.505 666 234.404C666 217.303 656.081 203.439 643.846 203.439C631.611 203.439 621.692 217.303 621.692 234.404C621.692 251.505 631.611 265.368 643.846 265.368Z" stroke="white" stroke-width="3.2874" stroke-miterlimit="22.9256"/>
<path d="M643.846 315.727C656.081 315.727 666 301.864 666 284.763C666 267.662 656.081 253.799 643.846 253.799C631.611 253.799 621.692 267.662 621.692 284.763C621.692 301.864 631.611 315.727 643.846 315.727Z" stroke="white" stroke-width="3.2874" stroke-miterlimit="22.9256"/>
<path d="M643.846 366.087C656.081 366.087 666 352.224 666 335.123C666 318.022 656.081 304.159 643.846 304.159C631.611 304.159 621.692 318.022 621.692 335.123C621.692 352.224 631.611 366.087 643.846 366.087Z" stroke="white" stroke-width="3.2874" stroke-miterlimit="22.9256"/>
<path d="M643.846 416.448C656.081 416.448 666 402.585 666 385.484C666 368.383 656.081 354.52 643.846 354.52C631.611 354.52 621.692 368.383 621.692 385.484C621.692 402.585 631.611 416.448 643.846 416.448Z" stroke="white" stroke-width="3.2874" stroke-miterlimit="22.9256"/>
<path d="M643.846 466.808C656.081 466.808 666 452.945 666 435.844C666 418.743 656.081 404.879 643.846 404.879C631.611 404.879 621.692 418.743 621.692 435.844C621.692 452.945 631.611 466.808 643.846 466.808Z" stroke="white" stroke-width="3.2874" stroke-miterlimit="22.9256"/>
<path d="M643.846 517.167C656.081 517.167 666 503.304 666 486.203C666 469.102 656.081 455.239 643.846 455.239C631.611 455.239 621.692 469.102 621.692 486.203C621.692 503.304 631.611 517.167 643.846 517.167Z" stroke="white" stroke-width="3.2874" stroke-miterlimit="22.9256"/>
<path d="M643.846 567.526C656.081 567.526 666 553.663 666 536.562C666 519.461 656.081 505.598 643.846 505.598C631.611 505.598 621.692 519.461 621.692 536.562C621.692 553.663 631.611 567.526 643.846 567.526Z" stroke="white" stroke-width="3.2874" stroke-miterlimit="22.9256"/>
<path d="M643.846 617.886C656.081 617.886 666 604.023 666 586.922C666 569.821 656.081 555.958 643.846 555.958C631.611 555.958 621.692 569.821 621.692 586.922C621.692 604.023 631.611 617.886 643.846 617.886Z" stroke="white" stroke-width="3.2874" stroke-miterlimit="22.9256"/>
</g>
</svg>
