<svg width="240" height="66" viewBox="0 0 240 66" fill="none" xmlns="http://www.w3.org/2000/svg">
<path d="M89.3706 28.2016C90.2543 28.8862 90.9385 29.7201 91.4235 30.7038C91.9081 31.6875 92.1502 32.778 92.1502 33.9757V35.7719C92.1502 38.2239 91.452 40.184 90.0548 41.6523C88.6576 43.1206 86.8187 43.855 84.5377 43.855H79.1062C78.4501 43.855 77.9086 43.641 77.481 43.2134C77.0534 42.7858 76.8394 42.2441 76.8394 41.5881V21.2304C76.8394 18.8354 77.5167 16.911 78.8709 15.4568C80.2252 14.0026 81.9999 13.2758 84.1957 13.2758C86.4196 13.2758 88.2159 14.0026 89.5842 15.4568C90.9529 16.911 91.6371 18.8354 91.6371 21.2304V22.9412C91.6656 24.0248 91.4804 25.0226 91.081 25.9352C90.6819 26.8474 90.1117 27.603 89.3706 28.2016ZM82.1854 26.1917H84.2382C84.8938 26.1917 85.4001 25.9565 85.7567 25.4859C86.1128 25.0157 86.2911 24.3669 86.2911 23.5402V20.7602C86.2911 19.9902 86.0987 19.3775 85.7137 18.921C85.3287 18.4649 84.8084 18.2368 84.1527 18.2368C83.5256 18.2368 83.0405 18.4649 82.6984 18.921C82.3564 19.3775 82.1854 19.9902 82.1854 20.7602V26.1917ZM86.7187 33.8046C86.7187 32.892 86.5119 32.1866 86.0987 31.6875C85.6852 31.1884 85.1219 30.9391 84.4092 30.9391H82.1854V38.9796H84.4092C85.1508 38.9796 85.721 38.737 86.1201 38.2524C86.5192 37.7678 86.7187 37.0833 86.7187 36.1996V33.8046ZM101.645 44.1971C99.5065 44.1971 97.7816 43.5269 96.4699 42.1871C95.1586 40.8469 94.5026 39.0936 94.5026 36.9267V29.0143C94.5026 26.8759 95.1586 25.1366 96.4699 23.7968C97.7816 22.4566 99.5065 21.7864 101.645 21.7864C103.783 21.7864 105.508 22.4566 106.82 23.7968C108.131 25.1366 108.787 26.8759 108.787 29.0143V36.9267C108.787 39.0936 108.131 40.8469 106.82 42.1871C105.508 43.5269 103.783 44.1971 101.645 44.1971ZM101.645 39.4071C102.272 39.4071 102.771 39.2076 103.142 38.8085C103.513 38.409 103.698 37.8818 103.698 37.2258V28.7577C103.698 28.0736 103.513 27.5319 103.142 27.1325C102.771 26.7334 102.272 26.5338 101.645 26.5338C101.018 26.5338 100.519 26.7334 100.148 27.1325C99.7775 27.5319 99.592 28.0736 99.592 28.7577V37.2258C99.592 37.8818 99.7775 38.409 100.148 38.8085C100.519 39.2076 101.018 39.4071 101.645 39.4071ZM112.593 43.6839C112.109 43.6839 111.866 43.4274 111.866 42.9143V29.0143C111.866 26.8759 112.508 25.1366 113.791 23.7968C115.074 22.4566 116.756 21.7864 118.838 21.7864C120.919 21.7864 122.601 22.4566 123.884 23.7968C125.167 25.1366 125.809 26.8759 125.809 29.0143V42.9143C125.809 43.4274 125.567 43.6839 125.082 43.6839H121.532C121.019 43.6839 120.762 43.4274 120.762 42.9143V28.7577C120.762 28.1021 120.591 27.5673 120.249 27.1541C119.907 26.7406 119.437 26.5338 118.838 26.5338C118.239 26.5338 117.761 26.7334 117.405 27.1325C117.048 27.5319 116.87 28.0736 116.87 28.7577V42.9143C116.87 43.4274 116.628 43.6839 116.143 43.6839H112.593ZM135.902 44.1545C133.707 44.1545 131.939 43.4984 130.599 42.1871C129.258 40.8754 128.589 39.1506 128.589 37.0122C128.589 35.1304 129.237 33.5834 130.534 32.3716C131.832 31.1599 133.507 30.554 135.56 30.554H137.698V28.7152C137.698 28.0591 137.527 27.5388 137.185 27.1541C136.843 26.7691 136.372 26.5768 135.774 26.5768C135.175 26.5768 134.719 26.7478 134.405 27.0899C134.091 27.432 133.92 27.8881 133.892 28.4586C133.863 28.8292 133.607 29.0143 133.122 29.0143H129.615C129.13 29.0143 128.888 28.7577 128.888 28.2446C129.059 26.3058 129.772 24.7447 131.026 23.5615C132.281 22.3783 133.878 21.7864 135.817 21.7864C137.898 21.7864 139.573 22.4566 140.842 23.7968C142.111 25.1366 142.745 26.8759 142.745 29.0143V37.2258C142.745 39.3357 142.139 41.018 140.927 42.2726C139.716 43.5269 138.041 44.1545 135.902 44.1545ZM135.817 39.3642C136.415 39.3642 136.879 39.1791 137.207 38.8085C137.534 38.4375 137.698 37.9244 137.698 37.2687V34.9593H135.859C135.175 34.9593 134.64 35.1444 134.256 35.515C133.871 35.886 133.678 36.3847 133.678 37.0122C133.678 37.7534 133.863 38.3307 134.234 38.7443C134.605 39.1578 135.132 39.3642 135.817 39.3642ZM153.48 44.1971C151.17 44.1971 149.303 43.4559 147.877 41.9731C146.452 40.4904 145.738 38.5375 145.738 36.114V21.2734C145.738 18.8784 146.437 16.9396 147.834 15.4568C149.231 13.9741 151.07 13.2329 153.351 13.2329C155.547 13.2329 157.357 13.9957 158.783 15.521C160.209 17.0463 160.95 19.0635 161.007 21.5729C161.007 22.086 160.765 22.3426 160.28 22.3426H156.431C155.946 22.3426 155.675 22.1 155.618 21.6154C155.59 20.4752 155.369 19.6268 154.955 19.0707C154.542 18.5146 154.007 18.2368 153.351 18.2368C152.639 18.2368 152.09 18.4721 151.705 18.9427C151.32 19.4128 151.127 20.0616 151.127 20.8883V36.4987C151.127 37.3258 151.355 37.9814 151.812 38.466C152.268 38.951 152.867 39.1931 153.608 39.1931C154.321 39.1931 154.898 38.9579 155.34 38.4877C155.782 38.0172 156.003 37.3968 156.003 36.6272V31.7943H154.292C153.779 31.7943 153.522 31.5377 153.522 31.0246V27.9451C153.522 27.432 153.779 27.1754 154.292 27.1754H159.082C159.795 27.1754 160.344 27.3677 160.729 27.7528C161.114 28.1378 161.306 28.7007 161.306 29.4423V36.2421C161.306 38.6089 160.586 40.5261 159.147 41.9944C157.706 43.4631 155.818 44.1971 153.48 44.1971ZM170.887 44.1545C168.691 44.1545 166.923 43.4984 165.583 42.1871C164.243 40.8754 163.573 39.1506 163.573 37.0122C163.573 35.1304 164.222 33.5834 165.519 32.3716C166.816 31.1599 168.491 30.554 170.544 30.554H172.683V28.7152C172.683 28.0591 172.511 27.5388 172.169 27.1541C171.827 26.7691 171.357 26.5768 170.758 26.5768C170.159 26.5768 169.703 26.7478 169.389 27.0899C169.076 27.432 168.905 27.8881 168.876 28.4586C168.848 28.8292 168.591 29.0143 168.107 29.0143H164.599C164.115 29.0143 163.872 28.7577 163.872 28.2446C164.043 26.3058 164.756 24.7447 166.011 23.5615C167.265 22.3783 168.862 21.7864 170.801 21.7864C172.882 21.7864 174.557 22.4566 175.826 23.7968C177.095 25.1366 177.729 26.8759 177.729 29.0143V37.2258C177.729 39.3357 177.123 41.018 175.912 42.2726C174.7 43.5269 173.025 44.1545 170.887 44.1545ZM170.801 39.3642C171.4 39.3642 171.863 39.1791 172.191 38.8085C172.519 38.4375 172.683 37.9244 172.683 37.2687V34.9593H170.844C170.159 34.9593 169.625 35.1444 169.24 35.515C168.855 35.886 168.663 36.3847 168.663 37.0122C168.663 37.7534 168.848 38.3307 169.218 38.7443C169.589 39.1578 170.116 39.3642 170.801 39.3642ZM181.536 43.6839C181.051 43.6839 180.808 43.4274 180.808 42.9143V30.7251C180.808 28.0736 181.521 25.9994 182.947 24.5022C184.373 23.0054 186.297 22.257 188.721 22.257H189.961C190.474 22.257 190.731 22.5136 190.731 23.0267V26.2773C190.731 26.7619 190.474 27.0044 189.961 27.0044H188.892C187.951 27.0044 187.202 27.2822 186.646 27.8383C186.091 28.3944 185.812 29.1568 185.812 30.1265V42.9143C185.812 43.4274 185.57 43.6839 185.085 43.6839H181.536ZM205.358 13.746C205.871 13.746 206.127 13.9885 206.127 14.4731V36.9267C206.127 39.0936 205.472 40.8469 204.16 42.1871C202.849 43.5269 201.138 44.1971 199.028 44.1971C196.89 44.1971 195.172 43.5269 193.874 42.1871C192.577 40.8469 191.928 39.0936 191.928 36.9267V29.0143C191.928 26.8759 192.492 25.1366 193.618 23.7968C194.744 22.4566 196.248 21.7864 198.13 21.7864C199.356 21.7864 200.339 22.1145 201.081 22.7701V14.4731C201.081 13.9885 201.323 13.746 201.808 13.746H205.358ZM201.081 28.7577C201.081 28.1021 200.896 27.5745 200.525 27.1754C200.154 26.7763 199.655 26.5768 199.028 26.5768C198.401 26.5768 197.902 26.7763 197.531 27.1754C197.16 27.5745 196.975 28.1021 196.975 28.7577V37.2258C196.975 37.8818 197.16 38.409 197.531 38.8085C197.902 39.2076 198.401 39.4071 199.028 39.4071C199.655 39.4071 200.154 39.2076 200.525 38.8085C200.896 38.409 201.081 37.8818 201.081 37.2258V28.7577ZM216.092 44.1545C214.011 44.1545 212.329 43.4916 211.046 42.1658C209.763 40.8397 209.121 39.0936 209.121 36.9267V28.8433C209.178 26.7334 209.863 25.037 211.174 23.7538C212.486 22.471 214.225 21.8294 216.392 21.8294C218.416 21.8294 220.077 22.4778 221.374 23.7751C222.672 25.0727 223.32 26.7478 223.32 28.8007C223.32 30.768 222.672 32.3644 221.374 33.5906C220.077 34.8168 218.388 35.4295 216.306 35.4295H214.21V37.2258C214.21 37.9103 214.382 38.4447 214.724 38.8298C215.066 39.2148 215.536 39.4071 216.135 39.4071C216.677 39.4071 217.112 39.2502 217.44 38.9366C217.767 38.623 217.974 38.181 218.06 37.6108C218.145 37.1262 218.402 36.8837 218.829 36.8837H222.422C222.907 36.8837 223.149 37.1403 223.149 37.6538C223.007 39.5922 222.294 41.1605 221.011 42.3582C219.728 43.5554 218.088 44.1545 216.092 44.1545ZM216.306 30.9816C216.934 30.9816 217.418 30.8034 217.76 30.4473C218.103 30.0907 218.274 29.5848 218.274 28.9288C218.274 28.1591 218.095 27.5745 217.739 27.1754C217.382 26.7763 216.876 26.5768 216.221 26.5768C215.565 26.5768 215.066 26.7691 214.724 27.1541C214.382 27.5388 214.21 28.0736 214.21 28.7577V30.9816H216.306ZM226.784 43.6839C226.3 43.6839 226.057 43.4274 226.057 42.9143V29.0143C226.057 26.8759 226.699 25.1366 227.982 23.7968C229.265 22.4566 230.947 21.7864 233.028 21.7864C235.11 21.7864 236.792 22.4566 238.075 23.7968C239.358 25.1366 240 26.8759 240 29.0143V42.9143C240 43.4274 239.758 43.6839 239.273 43.6839H235.723C235.21 43.6839 234.953 43.4274 234.953 42.9143V28.7577C234.953 28.1021 234.782 27.5673 234.44 27.1541C234.098 26.7406 233.627 26.5338 233.028 26.5338C232.43 26.5338 231.952 26.7334 231.596 27.1325C231.239 27.5319 231.061 28.0736 231.061 28.7577V42.9143C231.061 43.4274 230.819 43.6839 230.334 43.6839H226.784Z" fill="#364666"/>
<path d="M82.3989 54.5947V53.3633H76.8369V62.4043H78.2084V54.5947H82.3989ZM88.5318 62.4043V58.0998C88.5318 56.6396 87.6301 55.8903 85.8398 55.8903C85.2307 55.8903 84.7734 55.9662 84.4052 56.1445C84.0876 56.2838 83.9226 56.4364 83.5668 56.8174L84.4181 57.6172C84.6084 57.3759 84.7477 57.249 84.9384 57.1603C85.1672 57.0459 85.4334 56.9949 85.8016 56.9949C86.8174 56.9949 87.2494 57.3506 87.2494 58.1885V58.6587H85.5226C84.1511 58.6587 83.3131 59.3569 83.3131 60.5249C83.3131 61.7691 84.1133 62.4677 85.5478 62.4677C86.3099 62.4677 86.7287 62.3537 87.2619 61.8201V62.4043H88.5318ZM87.2494 60.0808C87.2494 61.0199 86.8431 61.4009 85.8398 61.4009C84.9637 61.4009 84.5702 61.1091 84.5702 60.4871C84.5702 59.8773 84.9636 59.5725 85.7257 59.5725H87.2494V60.0808ZM95.7825 59.2043C95.7825 58.4427 95.7443 58.0107 95.6428 57.5538C95.3886 56.4364 94.6017 55.8903 93.4587 55.8903C92.6842 55.8903 92.3159 56.1064 91.7952 56.6396V55.9662H90.5257V65.0072H91.8205V61.7438C92.3035 62.2774 92.7351 62.4802 93.4714 62.4802C94.1319 62.4802 94.6905 62.2775 95.0711 61.8964C95.5794 61.3885 95.7825 60.6012 95.7825 59.2043ZM94.5001 59.179C94.5001 60.7152 94.1191 61.3251 93.1667 61.3251C92.2144 61.3251 91.8205 60.7152 91.8205 59.2296C91.8205 58.4933 91.8972 58.0107 92.0618 57.6678C92.2654 57.249 92.6207 57.0459 93.1539 57.0459C94.1191 57.0459 94.5001 57.6425 94.5001 59.179ZM103.947 62.4043V55.9662H102.677L100.76 59.8014L98.8295 55.9662H97.5475V62.4043H98.8424V58.2777L100.354 61.2235H101.166L102.652 58.2777V62.4043H103.947ZM111.07 59.1538C111.07 57.922 110.855 57.2109 110.321 56.652C109.839 56.1569 109.166 55.8903 108.391 55.8903C107.616 55.8903 106.956 56.1569 106.474 56.652C105.928 57.2237 105.712 57.9219 105.712 59.179C105.712 60.449 105.928 61.1472 106.474 61.7185C106.956 62.2136 107.616 62.4802 108.391 62.4802C109.166 62.4802 109.839 62.2136 110.321 61.7185C110.867 61.1472 111.07 60.449 111.07 59.1538ZM109.788 59.2043C109.788 59.9535 109.699 60.5249 109.394 60.8935C109.166 61.1601 108.823 61.3251 108.391 61.3251C107.985 61.3251 107.654 61.1853 107.426 60.9188C107.134 60.5883 107.007 60.0808 107.007 59.2296C107.007 58.468 107.083 57.8714 107.401 57.4775C107.629 57.2109 107.959 57.0459 108.391 57.0459C108.823 57.0459 109.153 57.2109 109.381 57.4646C109.712 57.8328 109.788 58.4045 109.788 59.2043ZM117.991 62.4043V55.9662H116.696V58.5314H114.13V55.9662H112.835V62.4043H114.13V59.6612H116.696V62.4043H117.991ZM125.394 62.4043V55.9662H124.098L121.343 60.3346V55.9662H120.048V62.4043H121.343L124.098 57.9729V62.4043H125.394ZM132.199 62.4043V55.9662H129.165C127.933 55.9662 127.069 56.7921 127.069 57.9601C127.069 58.8867 127.603 59.5725 128.429 59.8014L126.981 62.4043H128.504L129.723 60.0423C129.723 60.0423 130.879 60.0423 130.904 60.0423V62.4043H132.199ZM130.917 58.9759H129.381C128.733 58.9759 128.352 58.6077 128.352 58.0107C128.352 57.414 128.733 57.0459 129.381 57.0459H130.917V58.9759ZM141.723 57.0965V55.9662H136.415V57.0965H138.459V62.4043H139.755V57.0965H141.723ZM148.008 59.5725V58.9887C148.008 57.0965 146.954 55.8903 145.29 55.8903C143.602 55.8903 142.561 57.1346 142.561 59.1538C142.561 61.3375 143.551 62.4802 145.481 62.4802C146.51 62.4802 147.132 62.1883 147.856 61.4772L147.043 60.7027C146.586 61.1472 146.18 61.3757 145.532 61.3757C144.326 61.3757 143.869 60.6517 143.843 59.5725H148.008ZM146.738 58.6587H143.843C143.869 57.7694 144.25 56.9696 145.29 56.9696C146.344 56.9696 146.675 57.7822 146.738 58.6587ZM154.903 62.4043V55.9662H150.471L150.37 59.5472C150.332 61.0075 149.71 61.2741 149.189 61.2741H148.922V62.4043H149.621C150.814 62.4043 151.602 61.6422 151.652 59.8267L151.728 57.0965H153.608V62.4043H154.903ZM161.709 62.4043V58.0998C161.709 56.6396 160.807 55.8903 159.017 55.8903C158.408 55.8903 157.951 55.9662 157.582 56.1445C157.265 56.2838 157.1 56.4364 156.744 56.8174L157.595 57.6172C157.786 57.3759 157.925 57.249 158.116 57.1603C158.344 57.0459 158.611 56.9949 158.979 56.9949C159.995 56.9949 160.427 57.3506 160.427 58.1885V58.6587H158.7C157.328 58.6587 156.49 59.3569 156.49 60.5249C156.49 61.7691 157.29 62.4677 158.725 62.4677C159.487 62.4677 159.906 62.3537 160.439 61.8201V62.4043H161.709ZM160.427 60.0808C160.427 61.0199 160.02 61.4009 159.017 61.4009C158.141 61.4009 157.747 61.1091 157.747 60.4871C157.747 59.8773 158.141 59.5725 158.903 59.5725H160.427V60.0808ZM172.096 62.4043V55.9662H170.801L168.045 60.3346V55.9662H166.75V62.4043H168.045L170.801 57.9729V62.4043H172.096ZM183.143 64.1822V61.2741H182.254V55.9662H177.899V56.868C177.899 59.1915 177.606 60.1567 177.15 61.2741H176.413V64.1822H177.645V62.4043H181.898V64.1822H183.143ZM180.959 61.2741H178.482C178.825 60.4237 179.08 59.5854 179.117 58.1504C179.117 58.0364 179.13 57.2362 179.13 57.0965H180.959V61.2741ZM189.352 55.9662H187.968L186.469 60.5124L184.933 55.9662H183.549L185.809 62.0995L185.453 63.1154C185.263 63.661 185.06 63.7883 184.527 63.7883H184.197V64.9566H184.717C185.644 64.9566 186.19 64.5628 186.507 63.6871L189.352 55.9662ZM198.71 62.4043V55.9662H197.415V61.2741H195.244V55.9662H193.948V61.2741H191.764V55.9662H190.469V62.4043H198.71ZM206.125 62.4043V55.9662H204.83L202.075 60.3346V55.9662H200.779V62.4043H202.075L204.83 57.9729V62.4043H206.125Z" fill="#99A2B1"/>
<path d="M33.3419 57.9796C36.4226 57.9796 39.3388 55.1751 41.5623 50.6429C44.0018 45.6699 45.5115 38.7424 45.5115 31.0416C45.5115 23.3408 44.0022 16.4137 41.5623 11.4403C39.3388 6.9082 36.423 4.10413 33.3419 4.10413C30.2608 4.10413 27.3447 6.9082 25.1212 11.4403C22.6813 16.4137 21.1725 23.3408 21.1725 31.0416C21.1725 38.7424 22.6817 45.6699 25.1212 50.6429C27.3447 55.1751 30.2608 57.9796 33.3419 57.9796ZM45.2337 52.438C42.3103 58.3971 38.115 62.0833 33.3419 62.0833C28.5689 62.0833 24.3732 58.3971 21.4503 52.438C18.743 46.9198 17.0684 39.3511 17.0684 31.0416C17.0684 22.7322 18.743 15.1639 21.4503 9.64524C24.3732 3.68656 28.5685 0 33.3419 0C38.115 0 42.3103 3.68656 45.2337 9.64524C47.941 15.1639 49.6152 22.7322 49.6152 31.0416C49.6152 39.3511 47.9406 46.9198 45.2337 52.438Z" fill="#E6BE80"/>
<path d="M4.98972 8.32936C9.01035 5.7469 14.5306 6.57722 20.2034 10.0068C25.4542 13.1815 30.9524 18.6483 35.4512 25.6529C39.9496 32.6563 42.6344 39.9291 43.3375 46.0251C44.0975 52.6105 42.5562 57.9766 38.5351 60.559C34.5145 63.1419 28.9947 62.312 23.3219 58.8824C18.071 55.7081 12.5732 50.2416 8.07399 43.237L8.03509 43.1756C3.55996 36.1907 0.888337 28.942 0.187317 22.8637C-0.572323 16.2779 0.968691 10.9122 4.98972 8.32936ZM18.0878 13.5175C13.7601 10.9014 9.78926 10.114 7.20159 11.7758C4.61472 13.4376 3.67958 17.3756 4.25894 22.3991C4.89492 27.9126 7.36575 34.5566 11.5197 41.024L11.5301 41.0409C15.6816 47.499 20.692 52.5025 25.4373 55.3716C29.7647 57.9878 33.7356 58.7748 36.3233 57.1129C38.9101 55.4511 39.8452 51.5132 39.2658 46.4896C38.6299 40.9766 36.159 34.3318 32.0051 27.8648C27.852 21.3986 22.8372 16.3891 18.0878 13.5175Z" fill="#5FA494"/>
<path d="M59.4821 11.7756C56.8945 10.1138 52.9236 10.9012 48.5962 13.5173C43.8465 16.3885 38.8318 21.3984 34.6786 27.8646C30.5247 34.332 28.0534 40.9768 27.4174 46.4894C26.8381 51.513 27.7736 55.4509 30.3605 57.1127C32.9477 58.775 36.919 57.9876 41.2464 55.3714C45.9958 52.4999 51.0108 47.49 55.164 41.0238C59.3183 34.5564 61.7892 27.9116 62.4252 22.3989C63.0041 17.3754 62.0694 13.4375 59.4821 11.7756ZM46.4803 10.007C52.1535 6.57701 57.6734 5.74711 61.694 8.32916C65.715 10.912 67.256 16.2777 66.4963 22.8635C65.7929 28.9595 63.1085 36.2327 58.6105 43.2361C54.1112 50.2402 48.6127 55.7071 43.3619 58.8817C37.6891 62.3114 32.1692 63.1417 28.1486 60.5588C24.1276 57.9764 22.5866 52.6103 23.3467 46.0249C24.0501 39.9289 26.7345 32.6557 31.2322 25.6527C35.7314 18.6481 41.2295 13.1813 46.4803 10.007Z" fill="#F08365"/>
</svg>
