<svg width="156" height="35" viewBox="0 0 156 35" fill="none" xmlns="http://www.w3.org/2000/svg">
<path d="M18.5005 32.1713C20.2099 32.1713 21.828 30.6154 23.0618 28.1005C24.4155 25.341 25.253 21.4973 25.253 17.2242C25.253 12.9512 24.4156 9.10765 23.0618 6.34799C21.828 3.8331 20.2101 2.27716 18.5005 2.27716C16.7908 2.27716 15.1728 3.8331 13.939 6.34799C12.5853 9.10765 11.7479 12.9512 11.7479 17.2242C11.7479 21.4973 12.5854 25.341 13.939 28.1005C15.1728 30.6154 16.791 32.1713 18.5005 32.1713ZM25.0988 29.0965C23.4769 32.403 21.1488 34.4485 18.5005 34.4485C15.852 34.4485 13.5241 32.403 11.902 29.0965C10.4 26.0345 9.4707 21.8349 9.4707 17.2242C9.4707 12.6135 10.3998 8.41397 11.902 5.35193C13.5241 2.04546 15.8518 0 18.5005 0C21.149 0 23.4769 2.04546 25.0988 5.35193C26.6011 8.41397 27.5302 12.6135 27.5302 17.2242C27.5302 21.8349 26.6009 26.0345 25.0988 29.0965Z" fill="#E6BE80"/>
<path d="M2.76872 4.62226C4.99962 3.18929 8.06268 3.64992 11.2104 5.55308C14.124 7.31462 17.1747 10.3478 19.6711 14.2345C22.167 18.1205 23.6567 22.1561 24.0469 25.5385C24.4686 29.1928 23.6134 32.1701 21.3822 33.6032C19.1512 35.0362 16.0885 34.5757 12.9406 32.6727C10.0272 30.9113 6.97661 27.8782 4.48011 23.9917L4.45968 23.9598C1.97564 20.0824 0.492998 16.06 0.103992 12.687C-0.317643 9.03269 0.537406 6.0554 2.76872 4.62226ZM10.0364 7.50107C7.63512 6.04929 5.43176 5.6124 3.99609 6.53449C2.56058 7.45666 2.04173 9.64179 2.36328 12.4292C2.71601 15.4883 4.08712 19.1751 6.39208 22.7637L6.40369 22.7817C8.70594 26.3608 11.4836 29.134 14.1146 30.7246C16.5158 32.1763 18.7192 32.6131 20.1548 31.691C21.5903 30.7688 22.1091 28.5837 21.7876 25.7963C21.4347 22.7373 20.0636 19.0504 17.7588 15.4619C15.4545 11.874 12.6718 9.0943 10.0364 7.50107Z" fill="#5FA494"/>
<path d="M33.0044 6.53436C31.5686 5.61228 29.3652 6.04917 26.9641 7.50078C24.3286 9.09409 21.5461 11.8738 19.2415 15.4618C16.9367 19.0504 15.5655 22.7373 15.2126 25.7962C14.8911 28.5835 15.41 30.7687 16.8455 31.6908C18.2812 32.6131 20.4847 32.1762 22.8858 30.7245C25.5212 29.1313 28.3039 26.3514 30.6084 22.7635C32.9134 19.1748 34.2845 15.4879 34.6373 12.429C34.9588 9.64167 34.4399 7.45654 33.0044 6.53436ZM25.7901 5.55303C28.9379 3.64996 32.0009 3.18934 34.2318 4.62213C36.4629 6.05527 37.3179 9.03239 36.8964 12.6868C36.506 16.0693 35.0167 20.105 32.5207 23.991C30.0243 27.8775 26.9733 30.9109 24.0598 32.6722C20.912 34.5754 17.8491 35.036 15.6182 33.6031C13.3869 32.1699 12.532 29.1926 12.9536 25.5384C13.344 22.1559 14.8335 18.1202 17.3293 14.2344C19.8257 10.3477 22.8766 7.31449 25.7901 5.55303Z" fill="#F08365"/>
<path d="M54.4484 17.1521C55.044 17.6161 55.5057 18.1817 55.8321 18.8488C56.159 19.5159 56.3223 20.2555 56.3223 21.0676V22.2859C56.3223 23.949 55.8517 25.2783 54.9097 26.2742C53.9676 27.2698 52.7281 27.7678 51.1901 27.7678H47.5282C47.0861 27.7678 46.7209 27.6228 46.4327 27.3329C46.1445 27.0429 46 26.6752 46 26.2304V12.4241C46 10.7999 46.4568 9.49442 47.3699 8.50828C48.283 7.52215 49.4794 7.02907 50.9596 7.02907C52.459 7.02907 53.6697 7.52215 54.5926 8.50828C55.515 9.49442 55.9767 10.7999 55.9767 12.4241V13.5843C55.9958 14.319 55.8708 14.9959 55.6017 15.6147C55.3326 16.2335 54.9479 16.7458 54.4484 17.1521ZM49.6044 15.7888H50.9881C51.4302 15.7888 51.7718 15.6291 52.012 15.3101C52.2522 14.991 52.3722 14.5512 52.3722 13.9901V12.1051C52.3722 11.583 52.2424 11.1673 51.9831 10.8577C51.7238 10.5485 51.3728 10.3937 50.9307 10.3937C50.5077 10.3937 50.1808 10.5485 49.9504 10.8577C49.7196 11.1673 49.6044 11.583 49.6044 12.1051V15.7888ZM52.6605 20.9517C52.6605 20.3329 52.5213 19.8541 52.2424 19.5158C51.9639 19.1776 51.5841 19.0085 51.1037 19.0085H49.6044V24.4613H51.1037C51.6032 24.4613 51.9879 24.2971 52.257 23.9682C52.5261 23.6394 52.6605 23.1754 52.6605 22.5758V20.9517ZM62.7235 28C61.282 28 60.1189 27.5454 59.2347 26.6367C58.3504 25.728 57.9083 24.5387 57.9083 23.0689V17.7029C57.9083 16.2528 58.3504 15.0733 59.2347 14.1642C60.1189 13.2555 61.282 12.8013 62.7235 12.8013C64.1654 12.8013 65.3281 13.2555 66.2123 14.1642C67.0965 15.0733 67.539 16.2528 67.539 17.7029V23.0689C67.539 24.5387 67.0965 25.728 66.2123 26.6367C65.3281 27.5454 64.1654 28 62.7235 28ZM62.7235 24.7512C63.1465 24.7512 63.4831 24.6161 63.7327 24.3454C63.9826 24.0747 64.1076 23.7168 64.1076 23.272V17.5289C64.1076 17.0649 63.9826 16.6975 63.7327 16.4268C63.4831 16.1561 63.1465 16.0206 62.7235 16.0206C62.3009 16.0206 61.9642 16.1561 61.7143 16.4268C61.4647 16.6975 61.3398 17.0649 61.3398 17.5289V23.272C61.3398 23.7168 61.4647 24.0747 61.7143 24.3454C61.9642 24.6161 62.3009 24.7512 62.7235 24.7512ZM70.1049 27.6519C69.7784 27.6519 69.6148 27.4779 69.6148 27.1298V17.7029C69.6148 16.2528 70.0475 15.0733 70.9122 14.1642C71.7772 13.2555 72.9114 12.8013 74.3147 12.8013C75.7179 12.8013 76.8521 13.2555 77.7172 14.1642C78.5818 15.0733 79.0146 16.2528 79.0146 17.7029V27.1298C79.0146 27.4779 78.8513 27.6519 78.5244 27.6519H76.1312C75.7851 27.6519 75.6121 27.4779 75.6121 27.1298V17.5289C75.6121 17.0841 75.4969 16.7217 75.2661 16.4412C75.0357 16.1611 74.7185 16.0206 74.3147 16.0206C73.9108 16.0206 73.5893 16.1561 73.3487 16.4268C73.1085 16.6975 72.9883 17.0649 72.9883 17.5289V27.1298C72.9883 27.4779 72.8251 27.6519 72.4982 27.6519H70.1049ZM85.8192 27.9709C84.339 27.9709 83.1475 27.5262 82.2437 26.6367C81.3404 25.7472 80.8889 24.5772 80.8889 23.1271C80.8889 21.851 81.3261 20.8018 82.2005 19.9798C83.0754 19.1579 84.2046 18.7472 85.5883 18.7472H87.0303V17.5002C87.0303 17.0554 86.9147 16.7025 86.6842 16.4412C86.4534 16.1803 86.1363 16.0496 85.7325 16.0496C85.3291 16.0496 85.0213 16.166 84.81 16.3977C84.5987 16.6299 84.4831 16.9391 84.464 17.3261C84.4448 17.5772 84.2718 17.7029 83.9449 17.7029H81.5805C81.254 17.7029 81.0904 17.5289 81.0904 17.1808C81.206 15.8662 81.6864 14.8072 82.5323 14.0049C83.3779 13.2022 84.4542 12.8013 85.7614 12.8013C87.1646 12.8013 88.2939 13.2555 89.1492 14.1642C90.0049 15.0733 90.4324 16.2528 90.4324 17.7029V23.272C90.4324 24.7029 90.0241 25.8438 89.207 26.6948C88.39 27.5454 87.2607 27.9709 85.8192 27.9709ZM85.7614 24.7222C86.1652 24.7222 86.4775 24.5968 86.6986 24.3454C86.9196 24.0939 87.0303 23.7459 87.0303 23.3011V21.7347H85.7903C85.3291 21.7347 84.9688 21.8604 84.709 22.1118C84.4497 22.3633 84.3199 22.7016 84.3199 23.1271C84.3199 23.63 84.4448 24.0214 84.6948 24.3016C84.9444 24.5821 85.3001 24.7222 85.7614 24.7222ZM97.6698 28C96.113 28 94.8538 27.4971 93.8927 26.4917C92.9315 25.4863 92.4512 24.1615 92.4512 22.5181V12.4532C92.4512 10.8286 92.9218 9.51407 93.8638 8.50828C94.8058 7.5029 96.0454 7 97.5834 7C99.0636 7 100.284 7.51721 101.245 8.55167C102.206 9.58654 102.706 10.9543 102.745 12.6559C102.745 13.004 102.581 13.1781 102.254 13.1781H99.6592C99.3327 13.1781 99.15 13.0138 99.1117 12.685C99.0922 11.9118 98.9431 11.3364 98.6647 10.9593C98.3858 10.5821 98.0255 10.3937 97.5834 10.3937C97.1026 10.3937 96.7326 10.553 96.4733 10.8724C96.214 11.1915 96.0841 11.6313 96.0841 12.1919V22.779C96.0841 23.3396 96.238 23.7843 96.5453 24.1132C96.8531 24.442 97.2565 24.6063 97.7564 24.6063C98.2368 24.6063 98.626 24.4469 98.924 24.1279C99.222 23.8085 99.371 23.3879 99.371 22.8662V19.5884H98.2177C97.8716 19.5884 97.6986 19.4143 97.6986 19.0662V16.978C97.6986 16.6299 97.8716 16.4559 98.2177 16.4559H101.447C101.928 16.4559 102.298 16.5866 102.557 16.8474C102.817 17.1083 102.947 17.4904 102.947 17.9932V22.6049C102.947 24.2098 102.461 25.5105 101.49 26.506C100.519 27.502 99.246 28 97.6698 28ZM109.405 27.9709C107.925 27.9709 106.733 27.5262 105.83 26.6367C104.926 25.7472 104.475 24.5772 104.475 23.1271C104.475 21.851 104.912 20.8018 105.786 19.9798C106.661 19.1579 107.791 18.7472 109.174 18.7472H110.616V17.5002C110.616 17.0554 110.501 16.7025 110.27 16.4412C110.039 16.1803 109.722 16.0496 109.318 16.0496C108.915 16.0496 108.607 16.166 108.396 16.3977C108.185 16.6299 108.069 16.9391 108.05 17.3261C108.031 17.5772 107.858 17.7029 107.531 17.7029H105.166C104.84 17.7029 104.676 17.5289 104.676 17.1808C104.792 15.8662 105.272 14.8072 106.118 14.0049C106.964 13.2022 108.04 12.8013 109.347 12.8013C110.751 12.8013 111.88 13.2555 112.735 14.1642C113.591 15.0733 114.018 16.2528 114.018 17.7029V23.272C114.018 24.7029 113.61 25.8438 112.793 26.6948C111.976 27.5454 110.847 27.9709 109.405 27.9709ZM109.347 24.7222C109.751 24.7222 110.063 24.5968 110.284 24.3454C110.505 24.0939 110.616 23.7459 110.616 23.3011V21.7347H109.376C108.915 21.7347 108.555 21.8604 108.295 22.1118C108.036 22.3633 107.906 22.7016 107.906 23.1271C107.906 23.63 108.031 24.0214 108.281 24.3016C108.53 24.5821 108.886 24.7222 109.347 24.7222ZM116.585 27.6519C116.258 27.6519 116.094 27.4779 116.094 27.1298V18.8631C116.094 17.0649 116.575 15.6582 117.536 14.6429C118.498 13.6277 119.795 13.1203 121.429 13.1203H122.265C122.611 13.1203 122.784 13.2944 122.784 13.6425V15.8465C122.784 16.1754 122.611 16.3396 122.265 16.3396H121.544C120.91 16.3396 120.405 16.5284 120.03 16.9056C119.655 17.2823 119.468 17.7995 119.468 18.4572V27.1298C119.468 27.4779 119.305 27.6519 118.978 27.6519H116.585ZM132.645 7.3481C132.991 7.3481 133.164 7.51232 133.164 7.84116V23.0689C133.164 24.5387 132.722 25.728 131.838 26.6367C130.953 27.5454 129.8 28 128.378 28C126.936 28 125.778 27.5454 124.903 26.6367C124.029 25.728 123.591 24.5387 123.591 23.0689V17.7029C123.591 16.2528 123.971 15.0733 124.73 14.1642C125.489 13.2555 126.503 12.8013 127.772 12.8013C128.599 12.8013 129.262 13.0237 129.761 13.4684V7.84116C129.761 7.51232 129.925 7.3481 130.252 7.3481H132.645ZM129.761 17.5289C129.761 17.0841 129.636 16.7266 129.387 16.4559C129.137 16.1852 128.8 16.0496 128.378 16.0496C127.955 16.0496 127.618 16.1852 127.369 16.4559C127.119 16.7266 126.994 17.0841 126.994 17.5289V23.272C126.994 23.7168 127.119 24.0747 127.369 24.3454C127.618 24.6161 127.955 24.7512 128.378 24.7512C128.8 24.7512 129.137 24.6161 129.387 24.3454C129.636 24.0747 129.761 23.7168 129.761 23.272V17.5289ZM139.882 27.9709C138.479 27.9709 137.344 27.5212 136.48 26.6223C135.615 25.723 135.182 24.5387 135.182 23.0689V17.587C135.221 16.1561 135.682 15.0054 136.566 14.1355C137.45 13.2653 138.623 12.83 140.084 12.83C141.448 12.83 142.568 13.2702 143.443 14.1499C144.318 15.0295 144.755 16.166 144.755 17.5579C144.755 18.8922 144.318 19.9749 143.443 20.8067C142.568 21.638 141.429 22.0537 140.026 22.0537H138.613V23.272C138.613 23.736 138.729 24.0988 138.959 24.3597C139.19 24.621 139.507 24.7512 139.911 24.7512C140.276 24.7512 140.569 24.6452 140.79 24.4322C141.011 24.2197 141.15 23.9199 141.208 23.5333C141.266 23.2045 141.439 23.0402 141.727 23.0402H144.149C144.476 23.0402 144.64 23.2139 144.64 23.562C144.543 24.877 144.063 25.9405 143.198 26.7526C142.333 27.5651 141.227 27.9709 139.882 27.9709ZM140.026 19.0371C140.449 19.0371 140.776 18.9163 141.006 18.6747C141.237 18.4331 141.352 18.0899 141.352 17.6452C141.352 17.123 141.232 16.7266 140.992 16.4559C140.752 16.1852 140.411 16.0496 139.969 16.0496C139.526 16.0496 139.19 16.1803 138.959 16.4412C138.729 16.7025 138.613 17.0649 138.613 17.5289V19.0371H140.026ZM147.09 27.6519C146.764 27.6519 146.6 27.4779 146.6 27.1298V17.7029C146.6 16.2528 147.033 15.0733 147.898 14.1642C148.763 13.2555 149.897 12.8013 151.3 12.8013C152.703 12.8013 153.837 13.2555 154.703 14.1642C155.567 15.0733 156 16.2528 156 17.7029V27.1298C156 27.4779 155.837 27.6519 155.51 27.6519H153.117C152.771 27.6519 152.597 27.4779 152.597 27.1298V17.5289C152.597 17.0841 152.482 16.7217 152.251 16.4412C152.021 16.1611 151.704 16.0206 151.3 16.0206C150.896 16.0206 150.575 16.1561 150.334 16.4268C150.094 16.6975 149.974 17.0649 149.974 17.5289V27.1298C149.974 27.4779 149.811 27.6519 149.484 27.6519H147.09Z" fill="#182949"/>
</svg>
